<svg width="32" height="46" viewBox="0 0 32 46" fill="none" xmlns="http://www.w3.org/2000/svg">
<path fill-rule="evenodd" clip-rule="evenodd" d="M6.4 3.50012V42.5001C6.4 43.4601 7.09 44.2701 8 44.4601V44.5001H2C0.9 44.5001 0 43.6001 0 42.5001V3.50012C0 2.40012 0.9 1.50012 2 1.50012H8V1.54012C7.09 1.73012 6.4 2.54012 6.4 3.50012" fill="#333333"/>
<path fill-rule="evenodd" clip-rule="evenodd" d="M14.402 3.50012V42.5001C14.402 43.4601 15.091 44.2701 16.002 44.4601V44.5001H10.002C8.90195 44.5001 8.00195 43.6001 8.00195 42.5001V3.50012C8.00195 2.40012 8.90195 1.50012 10.002 1.50012H16.002V1.54012C15.091 1.73012 14.402 2.54012 14.402 3.50012" fill="#333333"/>
<path fill-rule="evenodd" clip-rule="evenodd" d="M26.0015 43.9937C26.0015 45.2987 24.7785 46.2557 23.5165 45.9387L18.0015 44.5567C16.9015 44.5567 16.0015 43.6547 16.0015 42.5517V3.44873C16.0015 2.34573 16.9015 1.44373 18.0015 1.44373L23.5165 0.0607314C24.7785 -0.255269 26.0015 0.701732 26.0015 2.00673V43.9937Z" fill="#333333"/>
<path fill-rule="evenodd" clip-rule="evenodd" d="M31.4 3.00012V43.0001C31.4 44.1041 30.504 45.0001 29.4 45.0001H27.4V41.0001H29V5.00012H27.4V1.00012H29.4C30.504 1.00012 31.4 1.89612 31.4 3.00012" fill="#333333"/>
</svg>
