<svg width="52" height="35" viewBox="0 0 52 35" fill="none" xmlns="http://www.w3.org/2000/svg">
<path fill-rule="evenodd" clip-rule="evenodd" d="M35.8033 14.472V13.799C35.8033 12.532 34.7663 11.495 33.4983 11.495H22.3933V11.348C22.3933 10.796 21.9463 10.348 21.3933 10.348H19.2003C18.6493 10.348 18.2003 10.796 18.2003 11.348V11.495H17.5753C16.3093 11.495 15.2723 12.532 15.2723 13.799V14.375C11.9793 12.976 9.88932 10.93 9.88932 8.644C9.88932 4.431 16.9453 1.016 25.6483 1.016C34.3513 1.016 41.4073 4.431 41.4073 8.644C41.4073 10.982 39.2273 13.073 35.8033 14.472V14.472ZM34.7633 24.531C34.7633 25.263 34.1643 25.862 33.4323 25.862H17.6433C16.9103 25.862 16.3123 25.263 16.3123 24.531V13.893C16.3123 13.161 16.9103 12.562 17.6433 12.562H33.4323C34.1643 12.562 34.7633 13.161 34.7633 13.893V24.531ZM25.6483 0C16.1793 0 8.50232 3.716 8.50232 8.298V17.927H8.51832C8.70632 20.497 11.3183 22.765 15.2723 24.225V24.625C15.2723 25.892 16.3093 26.929 17.5753 26.929H33.4983C34.7663 26.929 35.8033 25.892 35.8033 24.625V24.303C39.8793 22.847 42.5863 20.545 42.7783 17.927H42.7933V8.298C42.7933 3.716 35.1163 0 25.6483 0V0Z" fill="#333333"/>
<path fill-rule="evenodd" clip-rule="evenodd" d="M25.648 34.6926C11.266 34.6926 0 28.5756 0 20.7656C0 16.5926 3.333 12.6916 9.145 10.0616L9.969 11.8836C4.905 14.1756 2 17.4136 2 20.7656C2 27.2306 12.83 32.6926 25.648 32.6926C38.467 32.6926 49.297 27.2306 49.297 20.7656C49.297 17.4216 46.405 14.1886 41.361 11.8986L42.187 10.0786C47.977 12.7066 51.297 16.6016 51.297 20.7656C51.297 28.5756 40.031 34.6926 25.648 34.6926" fill="#333333"/>
</svg>
