<svg width="34" height="46" viewBox="0 0 34 46" fill="none" xmlns="http://www.w3.org/2000/svg">
<path fill-rule="evenodd" clip-rule="evenodd" d="M10.38 8.46C10.38 9.75 9.319 10.81 8.029 10.81H4.06C2.77 10.81 1.72 9.75 1.72 8.46V4.07C1.72 2.78 2.77 1.72 4.06 1.72H8.029C9.319 1.72 10.38 2.78 10.38 4.07V8.46ZM16.44 2.21H21.79C21.369 0.93 20.159 0 18.73 0H3.21C1.43 0 0 1.44 0 3.21V42.06C0 43.83 1.43 45.27 3.21 45.27H13.8C12.97 44.54 12.449 43.47 12.449 42.29V6.2C12.449 4 14.239 2.21 16.44 2.21V2.21Z" fill="#333333"/>
<path fill-rule="evenodd" clip-rule="evenodd" d="M17.2335 13.255C16.0335 13.255 15.0505 12.273 15.0505 11.073V6.99499C15.0505 5.79399 16.0335 4.81199 17.2335 4.81199H20.9205C22.1205 4.81199 23.1025 5.79399 23.1025 6.99499V11.073C23.1025 12.273 22.1205 13.255 20.9205 13.255H17.2335ZM30.8625 3.21399H16.4365C14.7895 3.21399 13.4535 4.54999 13.4535 6.19799V42.287C13.4535 43.935 14.7895 45.271 16.4365 45.271H30.8625C32.5095 45.271 33.8455 43.935 33.8455 42.287V6.19799C33.8455 4.54999 32.5095 3.21399 30.8625 3.21399V3.21399Z" fill="#333333"/>
</svg>
