<svg width="26" height="27" viewBox="0 0 26 27" fill="none" xmlns="http://www.w3.org/2000/svg">
<path fill-rule="evenodd" clip-rule="evenodd" d="M9.4 5.50122H7.4C6.85 5.50122 6.4 5.05122 6.4 4.50122C6.4 3.95122 6.85 3.50122 7.4 3.50122H9.4C9.95 3.50122 10.4 3.95122 10.4 4.50122C10.4 5.05122 9.95 5.50122 9.4 5.50122V5.50122ZM3.25 7.00122C3.25 7.20122 3.19 7.36122 3.06 7.49122C2.93 7.62122 2.77 7.68122 2.59 7.68122C2.39 7.68122 2.22 7.62122 2.1 7.49122C1.96 7.36122 1.89 7.20122 1.89 7.00122V3.99122C1.89 3.80122 1.96 3.64122 2.1 3.52122C2.22 3.39122 2.39 3.32122 2.59 3.32122C2.77 3.32122 2.93 3.39122 3.06 3.52122C3.19 3.64122 3.25 3.80122 3.25 3.99122V7.00122ZM11.15 2.73022C10.61 1.90022 9.9 1.23022 9 0.741221C8.1 0.251221 7.12 0.0012207 6.05 0.0012207C5.1 0.0012207 4.25 0.161221 3.51 0.491221C2.79 0.821221 2.17 1.21122 1.66 1.68122C1.15 2.15022 0.74 2.60122 0.43 3.04122C0.14 3.47122 0 3.96122 0 4.50122V6.50122C0 7.03122 0.14 7.52122 0.43 7.97122C0.72 8.40022 1.12 8.86122 1.63 9.32122C2.15 9.79122 2.77 10.1712 3.51 10.5012C4.25 10.8312 5.1 10.9912 6.05 11.0012C7.12 11.0212 8.1 10.7812 9.02 10.2812C9.94 9.78122 10.66 9.11122 11.22 8.27122C11.76 7.44022 12.02 6.50122 12 5.50122C11.98 4.50122 11.7 3.57122 11.15 2.73022V2.73022Z" fill="#333333"/>
<mask id="mask0" mask-type="alpha" maskUnits="userSpaceOnUse" x="6" y="10" width="5" height="17">
<path fill-rule="evenodd" clip-rule="evenodd" d="M6.40002 10.5017H10.4V26.5012H6.40002V10.5017Z" fill="white"/>
</mask>
<g mask="url(#mask0)">
<path fill-rule="evenodd" clip-rule="evenodd" d="M8.52002 11.4837C7.83802 11.7327 7.13202 11.8937 6.40002 11.9667V21.4687V21.8977V25.1627C6.40002 25.5927 6.52802 25.9237 6.78302 26.1547C7.03902 26.3857 7.38702 26.5017 7.82902 26.5017H8.98602C9.41702 26.5017 9.76102 26.3857 10.016 26.1547C10.272 25.9237 10.4 25.5927 10.4 25.1627V21.8977V21.4687V10.5017C9.82902 10.9067 9.20202 11.2337 8.52002 11.4837" fill="#333333"/>
</g>
<path fill-rule="evenodd" clip-rule="evenodd" d="M24.0997 7.00126C24.0997 7.20126 24.0397 7.36126 23.9097 7.49126C23.7797 7.62126 23.6197 7.68126 23.4297 7.68126C23.2297 7.68126 23.0597 7.62126 22.9297 7.49126C22.7997 7.36126 22.7397 7.20126 22.7397 7.00126V3.99126C22.7397 3.80126 22.7997 3.64126 22.9297 3.52126C23.0597 3.39126 23.2297 3.32126 23.4297 3.32126C23.6197 3.32126 23.7797 3.39126 23.9097 3.52126C24.0397 3.64126 24.0997 3.80126 24.0997 3.99126V7.00126ZM18.3997 5.50126H16.3997C15.8497 5.50126 15.3997 5.05126 15.3997 4.50126C15.3997 3.95126 15.8497 3.50126 16.3997 3.50126H18.3997C18.9497 3.50126 19.3997 3.95126 19.3997 4.50126C19.3997 5.05126 18.9497 5.50126 18.3997 5.50126V5.50126ZM25.5797 3.04126C25.2797 2.60126 24.8797 2.15026 24.3597 1.68126C23.8497 1.21126 23.2297 0.821263 22.4897 0.501263C21.7497 0.181263 20.8997 0.0112626 19.9497 0.0012626C18.8797 -0.0197374 17.8997 0.221263 16.9797 0.721263C16.0697 1.21126 15.3397 1.88126 14.7997 2.73026C14.2397 3.57126 13.9797 4.50126 13.9997 5.50126C14.0097 6.50126 14.2897 7.43126 14.8397 8.26126C15.3697 9.10126 16.0897 9.77126 16.9897 10.2613C17.8797 10.7713 18.8697 11.0113 19.9497 11.0013C20.8997 11.0013 21.7497 10.8413 22.4897 10.5113C23.2297 10.1903 23.8497 9.80126 24.3597 9.32126C24.8797 8.85126 25.2797 8.39126 25.5797 7.97126C25.7197 7.74126 25.8197 7.50126 25.8897 7.26126C25.9597 7.02126 25.9997 6.76126 25.9997 6.50126V4.51126C25.9997 3.98026 25.8597 3.49126 25.5797 3.04126V3.04126Z" fill="#333333"/>
<mask id="mask1" mask-type="alpha" maskUnits="userSpaceOnUse" x="15" y="10" width="5" height="17">
<path fill-rule="evenodd" clip-rule="evenodd" d="M15.3997 10.5017H19.3997V26.5012H15.3997V10.5017Z" fill="white"/>
</mask>
<g mask="url(#mask1)">
<path fill-rule="evenodd" clip-rule="evenodd" d="M17.2877 11.4837C16.6087 11.2337 15.9787 10.9067 15.3997 10.5017V21.4687V21.8977V25.1627C15.3997 25.5927 15.5297 25.9237 15.7897 26.1547C16.0487 26.3857 16.3937 26.5017 16.8237 26.5017H17.9917C18.4207 26.5017 18.7637 26.3857 19.0177 26.1547C19.2727 25.9237 19.3997 25.5927 19.3997 25.1627V21.8977V21.4687V11.9667C18.6707 11.8937 17.9667 11.7327 17.2877 11.4837" fill="#333333"/>
</g>
</svg>
