<svg width="35" height="23" viewBox="0 0 35 23" fill="none" xmlns="http://www.w3.org/2000/svg">
<path fill-rule="evenodd" clip-rule="evenodd" d="M30.603 11.756C30.948 11.561 31.295 11.246 31.645 10.815C32.002 10.365 32.251 9.958 32.393 9.592C32.534 9.226 32.48 8.947 32.23 8.756C31.956 8.531 31.651 8.515 31.314 8.706C30.977 8.898 30.634 9.213 30.285 9.654C29.919 10.095 29.667 10.498 29.53 10.864C29.393 11.23 29.453 11.517 29.711 11.725C29.96 11.941 30.258 11.951 30.603 11.756V11.756ZM26.499 12.592C25.763 11.856 25.395 10.902 25.395 9.729C25.395 8.905 25.626 8.139 26.088 7.428C26.549 6.717 27.152 6.143 27.896 5.706C28.641 5.27 29.441 5.052 30.297 5.052C31.038 5.052 31.699 5.222 32.281 5.563C32.863 5.903 33.324 6.369 33.665 6.96C34.006 7.55 34.177 8.22 34.177 8.968C34.177 9.833 33.96 10.623 33.528 11.338C33.096 12.053 32.516 12.625 31.788 13.053C31.06 13.482 30.26 13.695 29.387 13.695C28.198 13.695 27.235 13.327 26.499 12.592V12.592ZM24.048 22.576C23.458 22.576 22.984 22.408 22.626 22.071C22.269 21.735 22.09 21.283 22.09 20.718V13.196C22.997 13.721 23.828 14.108 24.584 14.357C25.341 14.606 26.14 14.768 26.979 14.843V20.718C26.979 21.283 26.801 21.735 26.443 22.071C26.085 22.408 25.607 22.576 25.009 22.576H24.048ZM22.233 5.432C22.47 5.402 22.66 5.293 22.801 5.102C22.942 4.918 23.005 4.717 22.988 4.496C22.971 4.277 22.872 4.091 22.688 3.942L21.479 2.956C21.296 2.815 21.088 2.75 20.855 2.763C20.623 2.776 20.431 2.881 20.281 3.081C20.14 3.264 20.08 3.463 20.101 3.68C20.121 3.896 20.223 4.083 20.406 4.24L21.591 5.238C21.782 5.397 21.997 5.461 22.233 5.432V5.432ZM26.48 0.774C27.595 1.289 28.493 2.062 29.175 3.093C29.191 3.118 29.208 3.139 29.225 3.155L29.274 3.205C28.21 3.389 27.241 3.794 26.368 4.422C25.495 5.05 24.799 5.827 24.279 6.754C23.759 7.682 23.499 8.673 23.499 9.729C23.499 10.161 23.539 10.577 23.618 10.977C23.697 11.375 23.811 11.754 23.961 12.111C23.478 11.995 23.034 11.85 22.626 11.675C22.219 11.5 21.824 11.305 21.441 11.089C20.302 10.423 19.433 9.59 18.834 8.588C18.236 7.586 17.936 6.482 17.936 5.277C17.936 4.245 18.153 3.334 18.585 2.544C19.018 1.754 19.624 1.135 20.406 0.686C21.188 0.236 22.094 0.008 23.125 0C24.248 0 25.366 0.258 26.48 0.774V0.774ZM13.808 4.24C13.991 4.083 14.09 3.896 14.107 3.68C14.124 3.463 14.061 3.264 13.92 3.081C13.77 2.881 13.579 2.776 13.346 2.763C13.113 2.75 12.906 2.815 12.723 2.956L11.513 3.942C11.338 4.091 11.24 4.277 11.22 4.496C11.199 4.717 11.259 4.918 11.4 5.102C11.542 5.293 11.731 5.402 11.968 5.432C12.205 5.461 12.419 5.397 12.61 5.238L13.808 4.24ZM7.771 22.071C7.413 21.735 7.234 21.283 7.234 20.718V14.843C8.066 14.768 8.86 14.606 9.617 14.357C10.374 14.108 11.205 13.721 12.111 13.196V20.718C12.111 21.283 11.933 21.735 11.575 22.071C11.217 22.408 10.744 22.576 10.153 22.576H9.193C8.603 22.576 8.128 22.408 7.771 22.071V22.071ZM13.795 0.698C14.577 1.148 15.186 1.765 15.623 2.551C16.059 3.336 16.277 4.245 16.277 5.277C16.277 6.482 15.97 7.579 15.354 8.569C14.739 9.559 13.874 10.399 12.76 11.089C12.394 11.321 12.003 11.521 11.587 11.688C11.172 11.854 10.727 11.995 10.253 12.111C10.395 11.754 10.504 11.375 10.583 10.977C10.663 10.577 10.702 10.161 10.702 9.729C10.702 8.673 10.442 7.682 9.922 6.754C9.403 5.827 8.706 5.05 7.833 4.422C6.96 3.794 5.996 3.389 4.939 3.205C4.948 3.189 4.962 3.172 4.983 3.155C5.004 3.139 5.019 3.118 5.027 3.093C5.708 2.062 6.606 1.289 7.721 0.774C8.835 0.258 9.954 0 11.076 0C12.107 0.017 13.014 0.249 13.795 0.698V0.698ZM4.646 10.864C4.509 10.498 4.257 10.095 3.892 9.654C3.534 9.213 3.187 8.898 2.85 8.706C2.513 8.515 2.212 8.531 1.946 8.756C1.688 8.947 1.632 9.226 1.777 9.592C1.923 9.958 2.174 10.365 2.532 10.815C2.873 11.246 3.218 11.561 3.567 11.756C3.916 11.951 4.216 11.941 4.465 11.725C4.723 11.517 4.783 11.23 4.646 10.864V10.864ZM2.382 13.053C1.659 12.625 1.081 12.053 0.648 11.338C0.216 10.623 0 9.833 0 8.968C0 8.22 0.17 7.55 0.511 6.96C0.853 6.369 1.314 5.903 1.896 5.563C2.478 5.222 3.135 5.052 3.867 5.052C4.731 5.052 5.536 5.27 6.28 5.706C7.024 6.143 7.627 6.717 8.089 7.428C8.55 8.139 8.781 8.905 8.781 9.729C8.781 10.902 8.413 11.856 7.677 12.592C6.941 13.327 5.979 13.695 4.79 13.695C3.908 13.695 3.106 13.482 2.382 13.053V13.053Z" fill="#333333"/>
</svg>
