<svg width="37" height="42" viewBox="0 0 37 42" fill="none" xmlns="http://www.w3.org/2000/svg">
<path fill-rule="evenodd" clip-rule="evenodd" d="M3.31317 13.5853C2.32417 13.5853 1.51917 14.3913 1.51917 15.3803C1.51917 16.3703 2.32417 17.1753 3.31317 17.1753C4.30317 17.1753 5.10817 16.3703 5.10817 15.3803C5.10817 14.3913 4.30317 13.5853 3.31317 13.5853" fill="#333333"/>
<path fill-rule="evenodd" clip-rule="evenodd" d="M3.3132 18.1865C1.7662 18.1865 0.508199 16.9275 0.508199 15.3805C0.508199 13.8325 1.7662 12.5745 3.3132 12.5745C4.8612 12.5745 6.1192 13.8325 6.1192 15.3805C6.1192 16.9275 4.8612 18.1865 3.3132 18.1865V18.1865ZM5.0202 26.1725C5.0222 26.4355 5.0232 26.7025 4.9912 26.9515C4.9312 27.3775 4.7742 27.7295 4.5222 27.9985C4.2022 28.3385 3.7472 28.5335 3.2732 28.5335C2.8002 28.5335 2.3462 28.3385 2.0262 28.0005C1.7712 27.7285 1.6142 27.3765 1.5572 26.9535C1.5232 26.7125 1.5242 26.4535 1.5252 26.2725V22.8395C1.5242 22.5445 1.5242 22.2925 1.5582 22.0555C1.6142 21.6345 1.7712 21.2825 2.0262 21.0135C2.6882 20.3085 3.8572 20.3095 4.5212 21.0125C4.7752 21.2845 4.9322 21.6355 4.9902 22.0555C5.0232 22.3085 5.0222 22.5725 5.0212 22.7515L5.0202 26.1725ZM6.7262 10.3625C6.6262 10.0585 6.4742 9.74646 6.3392 9.49646C6.3012 9.56846 6.2672 9.64246 6.2282 9.71246L6.1962 9.77546C6.1842 9.80046 6.1692 9.82646 6.1582 9.85346L6.1422 9.89246L6.1232 9.92946C6.0282 10.1115 5.9242 10.3045 5.7722 10.5075C5.5632 10.7745 5.3082 10.9855 4.9782 11.1515C4.7032 11.2765 4.3992 11.3435 4.0992 11.3435C3.9962 11.3435 3.8912 11.3355 3.8342 11.3255C3.2552 11.2635 2.7372 10.9715 2.3612 10.4815C2.0912 10.1135 1.9422 9.66446 1.9422 9.21846L1.9442 9.14046L1.9462 9.11146V9.05946L1.9522 9.00746C2.0032 8.51346 2.2332 8.13446 2.3442 7.95246L2.3622 7.92346L2.3822 7.89546L2.4182 7.84146C2.4652 7.77146 2.5162 7.69646 2.5792 7.61546C2.6092 7.56846 2.6442 7.52246 2.6752 7.47546C2.4372 7.51746 2.1802 7.57946 1.9172 7.70146C1.5212 7.88946 1.3332 8.04546 1.0802 8.26646V8.26646C1.0802 8.26646 0.885199 8.46946 0.827199 8.53746C0.664199 8.72446 0.396199 9.09846 0.221199 9.62846C0.165199 9.79946 0.117199 9.99146 0.0781995 10.2415C-0.0158005 10.8265 0.00119946 11.8005 0.00119946 11.8005V29.0985C0.00119946 29.0985 -0.0158005 30.0725 0.0781995 30.6575C0.117199 30.9075 0.165199 31.0995 0.221199 31.2705C0.396199 31.7995 0.664199 32.1755 0.827199 32.3615C0.885199 32.4295 1.0802 32.6325 1.0802 32.6325C1.3332 32.8535 1.5212 33.0095 1.9172 33.1975C2.1012 33.2835 2.2852 33.3395 2.4632 33.3835C2.4412 33.3515 2.4132 33.3145 2.3932 33.2845L2.3442 33.2095C2.2332 33.0275 2.0032 32.6495 1.9522 32.1545L1.9462 32.1035V32.0515C1.9432 32.0155 1.9422 31.9785 1.9422 31.9435C1.9422 31.5015 2.0892 31.0545 2.3802 30.6505C2.7412 30.1895 3.2552 29.9005 3.7862 29.8415C3.8892 29.8255 3.9912 29.8175 4.0922 29.8175C4.3972 29.8175 4.7082 29.8875 4.9692 30.0115C5.2612 30.1425 5.5182 30.3435 5.7542 30.6285L5.7782 30.6575L5.8002 30.6875C5.9372 30.8795 6.0412 31.0735 6.1252 31.2385L6.1472 31.2825L6.1632 31.3205C6.1722 31.3445 6.1852 31.3665 6.1962 31.3885L6.2282 31.4545C6.2412 31.4785 6.2542 31.5075 6.2682 31.5315C6.4172 31.2675 6.6082 30.8975 6.7262 30.5365C6.9362 29.8885 7.0022 29.3815 7.0022 28.6285V20.4495V12.2695C7.0022 11.5175 6.9362 11.0095 6.7262 10.3625V10.3625Z" fill="#333333"/>
<path fill-rule="evenodd" clip-rule="evenodd" d="M3.78429 21.704C3.64729 21.559 3.46429 21.478 3.27329 21.478C3.07829 21.478 2.90229 21.557 2.76229 21.706C2.65529 21.819 2.58729 21.982 2.55829 22.192C2.53229 22.386 2.53429 22.592 2.53529 22.813V26.267C2.53429 26.42 2.53229 26.626 2.55829 26.817C2.58729 27.03 2.65529 27.193 2.76229 27.308C3.02129 27.579 3.52829 27.579 3.78529 27.306C3.89129 27.193 3.95929 27.03 3.98929 26.817C4.01429 26.615 4.01129 26.396 4.00929 26.177L4.01029 22.756C4.01129 22.601 4.01429 22.389 3.98829 22.19C3.96029 21.983 3.89129 21.819 3.78429 21.704" fill="#333333"/>
<path fill-rule="evenodd" clip-rule="evenodd" d="M3.16025 8.91743C4.28025 7.01243 5.65425 5.52343 7.24025 4.17243C8.82025 2.84143 10.6392 1.79643 12.5752 1.08543C14.5182 0.392431 16.5732 0.0324312 18.6182 0.00543116C20.6622 -0.0445688 22.7432 0.249431 24.6962 0.938431C28.6402 2.29843 31.8212 5.39043 33.6762 9.02043C35.5742 12.6474 36.3072 16.8244 36.1032 20.8304C35.9872 24.8144 35.4932 28.9114 33.7492 32.6494C32.8912 34.5094 31.6602 36.2344 30.0962 37.6114C28.5272 38.9854 26.6332 39.9664 24.6492 40.5244C22.6652 41.1114 20.6082 41.2804 18.5782 41.2554C16.5462 41.2204 14.4932 40.9274 12.5392 40.2694C10.5902 39.6104 8.73525 38.6214 7.13025 37.3004C6.33725 36.6314 5.56925 35.9214 4.90225 35.1134C4.22225 34.2934 3.62325 33.4984 3.08225 32.4454C2.82825 31.9524 3.02225 31.3474 3.51525 31.0934C4.00925 30.8394 4.61425 31.0344 4.86825 31.5274C4.88925 31.5694 4.90825 31.6134 4.92325 31.6574L4.94025 31.7064C5.19825 32.4634 5.68625 33.3404 6.22325 34.0764C6.77325 34.8274 7.39525 35.5374 8.10225 36.1564C9.51625 37.3934 11.1862 38.3444 12.9862 38.9404C14.7812 39.5524 16.6912 39.8334 18.6072 39.8734C20.5242 39.9024 22.4562 39.7474 24.2732 39.2134C26.0962 38.7064 27.7952 37.8264 29.2112 36.5974C30.6192 35.3634 31.7472 33.8084 32.5502 32.0824C34.1812 28.6224 34.6982 24.6834 34.8092 20.7974C34.9892 16.9154 34.2732 13.0404 32.4882 9.64143C30.7372 6.25943 27.8212 3.47043 24.2352 2.24843C22.4532 1.62743 20.5512 1.36143 18.6472 1.41743C16.7382 1.44943 14.8472 1.79243 13.0672 2.43443C11.2902 3.08443 9.63825 4.06343 8.22425 5.31943C6.82425 6.55043 5.59225 8.13343 4.86225 9.72543L4.83225 9.79043C4.61525 10.2634 4.05525 10.4714 3.58025 10.2544C3.10625 10.0374 2.89825 9.47643 3.11625 9.00243C3.12925 8.97343 3.14425 8.94443 3.16025 8.91743" fill="#333333"/>
</svg>
