<svg width="24" height="42" viewBox="0 0 24 42" fill="none" xmlns="http://www.w3.org/2000/svg">
<path fill-rule="evenodd" clip-rule="evenodd" d="M21.3 29.91C21.3 31.67 19.86 33.11 18.1 33.11H4.05C2.29 33.11 0.85 31.67 0.85 29.91V11.96C0.85 10.2 2.29 8.76 4.05 8.76H18.1C19.86 8.76 21.3 10.2 21.3 11.96V29.91ZM14.49 39.41C13.71 39.41 13.08 38.78 13.08 38C13.08 37.23 13.71 36.6 14.49 36.6C15.27 36.6 15.9 37.23 15.9 38C15.9 38.78 15.27 39.41 14.49 39.41V39.41ZM11.11 37.25C10.33 37.25 9.7 36.62 9.7 35.84C9.7 35.07 10.33 34.44 11.11 34.44C11.88 34.44 12.51 35.07 12.51 35.84C12.51 36.62 11.88 37.25 11.11 37.25V37.25ZM11.11 41.56C10.33 41.56 9.7 40.93 9.7 40.15C9.7 39.38 10.33 38.75 11.11 38.75C11.88 38.75 12.51 39.38 12.51 40.15C12.51 40.93 11.88 41.56 11.11 41.56V41.56ZM7.72 39.41C6.94 39.41 6.31 38.78 6.31 38C6.31 37.23 6.94 36.6 7.72 36.6C8.5 36.6 9.13 37.23 9.13 38C9.13 38.78 8.5 39.41 7.72 39.41V39.41ZM7.72 2.52C8.5 2.52 9.13 3.15 9.13 3.93C9.13 4.71 8.5 5.34 7.72 5.34C6.94 5.34 6.31 4.71 6.31 3.93C6.31 3.15 6.94 2.52 7.72 2.52V2.52ZM11.11 4.69C11.88 4.69 12.51 5.32 12.51 6.09C12.51 6.87 11.88 7.5 11.11 7.5C10.33 7.5 9.7 6.87 9.7 6.09C9.7 5.32 10.33 4.69 11.11 4.69V4.69ZM11.11 0.37C11.88 0.37 12.51 1 12.51 1.78C12.51 2.56 11.88 3.19 11.11 3.19C10.33 3.19 9.7 2.56 9.7 1.78C9.7 1 10.33 0.37 11.11 0.37V0.37ZM14.49 2.52C15.27 2.52 15.9 3.15 15.9 3.93C15.9 4.71 15.27 5.34 14.49 5.34C13.71 5.34 13.08 4.71 13.08 3.93C13.08 3.15 13.71 2.52 14.49 2.52V2.52ZM22.19 13.82V12.13C22.19 10.83 21.61 9.65 20.7 8.84C19.18 7.49 18.18 5.65 18.18 3.62V2.03C18.18 0.91 17.27 0 16.16 0H15.84C15.68 0.59 15.14 1.02 14.49 1.02C13.84 1.02 13.3 0.59 13.14 0H9.07C8.91 0.59 8.37 1.02 7.72 1.02C7.07 1.02 6.53 0.59 6.37 0H6.03C4.92 0 4 0.91 4 2.03V3.62C4 5.65 3.01 7.49 1.49 8.84C0.58 9.65 0 10.83 0 12.13V29.74C0 31.04 0.58 32.22 1.49 33.03C3.01 34.38 4 36.22 4 38.25V39.84C4 40.96 4.92 41.87 6.03 41.87H6.39C6.57 41.31 7.1 40.91 7.72 40.91C8.34 40.91 8.87 41.31 9.05 41.87H13.16C13.34 41.31 13.87 40.91 14.49 40.91C15.11 40.91 15.64 41.31 15.82 41.87H16.16C17.27 41.87 18.18 40.96 18.18 39.84V38.25C18.18 36.22 19.18 34.38 20.7 33.03C21.61 32.22 22.19 31.04 22.19 29.74V18.81C22.74 18.81 23.19 18.36 23.19 17.81V14.82C23.19 14.26 22.74 13.82 22.19 13.82V13.82Z" fill="#333333"/>
</svg>
