<svg width="43" height="19" viewBox="0 0 43 19" fill="none" xmlns="http://www.w3.org/2000/svg">
<path fill-rule="evenodd" clip-rule="evenodd" d="M33.4633 5.59C32.9033 5.59 32.4633 5.151 32.4633 4.59C32.4633 4.04 32.9033 3.59 33.4633 3.59C34.0133 3.59 34.4633 4.04 34.4633 4.59C34.4633 5.151 34.0133 5.59 33.4633 5.59M36.7333 0H5.27332C4.16332 0 3.27332 0.901 3.27332 2V11.66C3.27332 12.76 4.16332 13.66 5.27332 13.66H36.7333C37.8433 13.66 38.7333 12.76 38.7333 11.66V2C38.7333 0.901 37.8433 0 36.7333 0" fill="#333333"/>
<path fill-rule="evenodd" clip-rule="evenodd" d="M40.018 3.01477V15.1348H21.003H1.988V3.01477C0.89 3.01477 0 3.90477 0 5.00277V15.1348V15.9308C0 16.4838 0.448 16.9308 1 16.9308H1.988H16.033V17.7908C16.033 18.3428 16.481 18.7908 17.033 18.7908H21.003H24.974C25.526 18.7908 25.974 18.3428 25.974 17.7908V16.9308H40.018H41.006C41.559 16.9308 42.006 16.4838 42.006 15.9308V15.1348V5.00277C42.006 3.90477 41.116 3.01477 40.018 3.01477" fill="#333333"/>
</svg>
