<svg width="35" height="25" viewBox="0 0 35 25" fill="none" xmlns="http://www.w3.org/2000/svg">
<path fill-rule="evenodd" clip-rule="evenodd" d="M3.17 4.063C3.522 2.232 4.898 0.953 6.516 0.953H27.788C29.43 0.953 30.775 2.204 31.139 4.083L33.211 12.846C33.345 13.415 33.341 14.023 33.113 14.561C32.653 15.643 31.58 16.405 30.332 16.405H3.973C2.434 16.405 1.16 15.248 0.976 13.757C0.95 13.548 0.979 13.334 1.027 13.128L3.17 4.063ZM32.071 3.882C31.622 1.56 29.901 0 27.788 0H6.516C4.434 0 2.672 1.596 2.237 3.863L0.106 12.933C0.035 13.233 0 13.541 0 13.848V20.777C0 22.971 1.779 24.75 3.973 24.75H30.332C32.526 24.75 34.305 22.971 34.305 20.776V13.849C34.305 13.541 34.269 13.233 34.199 12.933L32.071 3.882Z" fill="#333333"/>
<path fill-rule="evenodd" clip-rule="evenodd" d="M9.90979 8.58059C10.0338 8.78859 10.2088 8.98359 10.4178 9.16959C10.5448 9.28259 10.6858 9.39059 10.8618 9.48159C10.9588 9.53359 11.0648 9.57859 11.1868 9.61059C11.3338 9.65059 11.4878 9.66759 11.6508 9.65359C11.7638 9.64459 11.8738 9.62659 11.9818 9.60459C12.0988 9.58059 12.2148 9.55559 12.3328 9.53559C12.4898 9.50959 12.6498 9.50159 12.8118 9.51459C12.9528 9.52459 13.0888 9.54559 13.2228 9.57059C13.3828 9.60159 13.5428 9.63259 13.7108 9.64659C13.8598 9.65959 14.0028 9.64859 14.1398 9.61559C14.2778 9.58159 14.3948 9.53259 14.5018 9.47559C14.6558 9.39359 14.7838 9.30059 14.8998 9.20259C15.0898 9.04259 15.2508 8.87559 15.3618 8.69459C15.3698 8.68259 15.3768 8.66959 15.3838 8.65659C15.2948 8.64259 15.2128 8.62059 15.1368 8.59459C14.9908 8.54259 14.8738 8.47459 14.7718 8.39759C14.5228 8.21259 14.4278 8.00459 14.4728 7.77659C14.4928 7.67259 14.5558 7.57459 14.6518 7.48159C14.7548 7.38359 14.8968 7.30159 15.0478 7.22459C15.0948 7.20059 15.1418 7.17859 15.1898 7.15459C15.1688 7.14059 15.1498 7.12759 15.1298 7.11459C15.0198 7.04659 14.9018 6.98259 14.7638 6.93059C14.5638 6.85459 14.3418 6.80959 14.0998 6.79459C13.9678 6.78559 13.8348 6.78559 13.7018 6.79459C13.5618 6.80559 13.4248 6.82259 13.2908 6.84759C13.1278 6.87559 12.9668 6.90759 12.7988 6.92759C12.7018 6.93759 12.6028 6.94559 12.5038 6.93359C12.3698 6.91559 12.2358 6.89959 12.1038 6.87959C11.8838 6.84659 11.6628 6.81459 11.4338 6.80759C11.3038 6.80259 11.1738 6.80659 11.0448 6.81959C10.7728 6.84959 10.5408 6.92059 10.3438 7.02559C10.1378 7.13659 9.98879 7.26859 9.88679 7.41559C9.78179 7.56759 9.73579 7.72659 9.72479 7.88959C9.71779 8.00259 9.72779 8.11559 9.75779 8.22759C9.78979 8.34859 9.84179 8.46559 9.90979 8.58059" fill="#333333"/>
<path fill-rule="evenodd" clip-rule="evenodd" d="M12.7986 6.772C12.9216 6.763 13.0386 6.744 13.1436 6.706C13.4526 6.597 13.6736 6.448 13.8026 6.259C13.8676 6.165 13.9086 6.068 13.9046 5.965C13.9036 5.939 13.8976 5.913 13.8816 5.887C13.8786 5.887 13.8776 5.886 13.8756 5.887C13.6916 5.911 13.5126 5.943 13.3446 5.992C13.1896 6.037 13.0496 6.092 12.9366 6.167C12.7936 6.259 12.6946 6.368 12.6316 6.484C12.5886 6.561 12.5646 6.641 12.5546 6.721C12.5516 6.744 12.5546 6.765 12.5546 6.788H12.5736C12.6486 6.783 12.7236 6.778 12.7986 6.772" fill="#333333"/>
<path fill-rule="evenodd" clip-rule="evenodd" d="M17.0988 8.81786C17.0988 9.36286 17.4268 9.59886 18.6318 9.59886C18.8658 9.59886 19.2128 9.58486 19.2968 9.57686V9.13886C19.2178 9.14386 19.0298 9.14986 18.8888 9.14986C18.3308 9.14986 18.1298 9.06786 18.1298 8.77186V7.32986H19.2408V6.88186H18.1298V6.20386H17.1128V6.88186H16.3448V7.32986H17.0988V8.81786Z" fill="#333333"/>
<path fill-rule="evenodd" clip-rule="evenodd" d="M22.8199 9.58165L24.5819 6.86365H23.4859L22.2859 9.02865H22.2429L21.1419 6.86365H20.0029L21.6949 9.58165H22.8199Z" fill="#333333"/>
</svg>
