<svg width="23" height="42" viewBox="0 0 23 42" fill="none" xmlns="http://www.w3.org/2000/svg">
<path fill-rule="evenodd" clip-rule="evenodd" d="M21.096 29.62C21.096 31.362 19.671 32.787 17.929 32.787H4.012C2.271 32.787 0.846 31.362 0.846 29.62V11.846C0.846 10.104 2.271 8.679 4.012 8.679H17.929C19.671 8.679 21.096 10.104 21.096 11.846V29.62ZM21.971 13.681V12.015C21.971 10.721 21.4 9.555 20.497 8.755C18.99 7.42 18.007 5.596 18.007 3.582V2.008C18.007 0.904 17.103 0 15.999 0H5.972C4.868 0 3.965 0.904 3.965 2.008V3.582C3.965 5.596 2.982 7.42 1.474 8.755C0.572 9.555 0 10.721 0 12.015V29.451C0 30.745 0.572 31.911 1.474 32.711C2.982 34.047 3.965 35.872 3.965 37.886V39.457C3.965 40.562 4.868 41.465 5.972 41.465H15.999C17.103 41.465 18.007 40.562 18.007 39.457V37.886C18.007 35.872 18.99 34.047 20.497 32.711C21.4 31.911 21.971 30.745 21.971 29.451V18.623H21.964C22.516 18.623 22.964 18.176 22.964 17.623V14.681C22.964 14.129 22.516 13.681 21.964 13.681H21.971Z" fill="#333333"/>
</svg>
