<svg width="39" height="43" viewBox="0 0 39 43" fill="none" xmlns="http://www.w3.org/2000/svg">
<path fill-rule="evenodd" clip-rule="evenodd" d="M0.0390092 26.1385C-0.108991 25.4655 0.177009 24.8295 0.679009 24.7195C1.18001 24.6095 1.70601 25.0655 1.85501 25.7395C2.00301 26.4125 1.71601 27.0485 1.21501 27.1585C0.713009 27.2685 0.187009 26.8125 0.0390092 26.1385" fill="#333333"/>
<mask id="mask0" mask-type="alpha" maskUnits="userSpaceOnUse" x="2" y="0" width="33" height="30">
<path fill-rule="evenodd" clip-rule="evenodd" d="M2.96411 0.515991H34.9143V29.3274H2.96411V0.515991Z" fill="white"/>
</mask>
<g mask="url(#mask0)">
<path fill-rule="evenodd" clip-rule="evenodd" d="M34.7733 9.62378C33.4613 7.43378 31.8523 5.72378 29.9733 4.20878C28.0763 2.75278 25.8963 1.64878 23.5743 1.07578C21.2543 0.525779 18.8543 0.344779 16.4803 0.695779C14.1133 1.05178 11.8223 1.95978 9.86729 3.33078C7.90329 4.68978 6.24829 6.44678 4.93829 8.41478C4.28729 9.40578 3.70629 10.4328 3.25729 11.5668C3.00929 12.0838 2.87929 12.9958 3.07529 13.6118C3.23129 14.2558 3.46729 14.7678 3.54529 15.2308C3.58629 15.4668 3.59129 15.6568 3.55529 15.8948L3.40929 16.7148C3.30229 17.2868 3.20829 17.8678 3.13529 18.4518C2.98729 19.6198 2.93629 20.8038 2.97829 21.9838C3.06629 24.3458 3.55729 26.6858 4.37629 28.8998C4.50129 29.2388 4.87729 29.4118 5.21529 29.2868C5.55429 29.1618 5.72829 28.7848 5.60229 28.4458L5.59929 28.4358C4.81429 26.3528 4.33829 24.1568 4.23929 21.9338C4.19229 20.8228 4.23329 19.7068 4.36529 18.5998C4.43129 18.0458 4.51729 17.4938 4.61729 16.9378L4.77529 16.0658C4.83029 15.7378 4.82429 15.3468 4.76429 15.0188C4.64329 14.3488 4.39329 13.8058 4.29029 13.3318C4.18229 12.8318 4.21229 12.5538 4.42929 12.0198C4.82929 11.0228 5.38529 10.0428 5.99829 9.12378C7.23729 7.28478 8.79629 5.65578 10.6123 4.41378C12.4213 3.16078 14.5113 2.34978 16.6803 2.03478C18.8453 1.72378 21.1063 1.90778 23.2293 2.42478C25.3543 2.97178 27.3583 3.96578 29.0643 5.34578C30.7253 6.73178 32.2013 8.54778 32.9793 10.4488L33.0043 10.5098C33.2123 11.0168 33.7913 11.2588 34.2983 11.0518C34.8053 10.8438 35.0473 10.2648 34.8403 9.75778C34.8213 9.71278 34.7973 9.66478 34.7733 9.62378" fill="#333333"/>
</g>
<path fill-rule="evenodd" clip-rule="evenodd" d="M33.1488 20.0988C33.1488 20.1808 33.0788 20.2508 32.9968 20.2508H32.9618C32.8678 20.2508 32.7968 20.1808 32.7968 20.0988V14.5548C32.7968 14.4608 32.8678 14.3908 32.9618 14.3908H32.9968C33.0788 14.3908 33.1488 14.4608 33.1488 14.5548V20.0988ZM33.1488 28.1858C33.1488 28.2798 33.0788 28.3508 32.9968 28.3508H32.9618C32.8678 28.3508 32.7968 28.2798 32.7968 28.1858V22.6538C32.7968 22.5598 32.8678 22.4898 32.9618 22.4898H32.9968C33.0788 22.4898 33.1488 22.5598 33.1488 22.6538V28.1858ZM38.0018 12.7378C38.0018 12.7378 38.0128 11.7658 37.9198 11.1798C37.8838 10.9328 37.8368 10.7448 37.7788 10.5698C37.6028 10.0418 37.3338 9.66684 37.1698 9.47984C37.1108 9.40984 36.9228 9.20984 36.9228 9.20984C36.6648 8.98784 36.4778 8.83484 36.0788 8.64784C35.8208 8.51884 35.5638 8.45984 35.3168 8.41284C35.3528 8.45984 35.3878 8.50684 35.4228 8.55384C35.4818 8.63584 35.5278 8.71784 35.5748 8.78784L35.6218 8.83484L35.6338 8.86984L35.6568 8.89384C35.7628 9.08084 35.9968 9.45584 36.0438 9.94884L36.0558 10.0068V10.1598C36.0558 10.6048 35.9028 11.0498 35.6338 11.4258C35.2588 11.9178 34.7428 12.2108 34.1688 12.2688C34.1098 12.2808 34.0038 12.2808 33.8988 12.2808C33.5938 12.2808 33.2898 12.2228 33.0198 12.0938C32.6918 11.9298 32.4338 11.7188 32.2228 11.4488C32.0698 11.2498 31.9648 11.0498 31.8708 10.8748L31.8588 10.8388L31.8358 10.7918L31.8008 10.7218L31.7658 10.6518L31.6598 10.4408C31.5198 10.6868 31.3668 11.0038 31.2738 11.3078C31.0628 11.9528 30.9918 12.4568 30.9918 13.2068V29.5698C30.9918 30.3198 31.0628 30.8358 31.2738 31.4798C31.3908 31.8438 31.5778 32.2068 31.7308 32.4758C31.7418 32.4528 31.7538 32.4178 31.7658 32.3938L31.8008 32.3358L31.8358 32.2658L31.8478 32.2298L31.8708 32.1828C31.9528 32.0188 32.0588 31.8198 32.1998 31.6328L32.2228 31.5978L32.2468 31.5738C32.4808 31.2808 32.7388 31.0818 33.0318 30.9528C33.2898 30.8358 33.6058 30.7648 33.9108 30.7648C34.0038 30.7648 34.1098 30.7648 34.2148 30.7888C34.7428 30.8478 35.2588 31.1288 35.6218 31.5978C35.9148 31.9958 36.0558 32.4408 36.0558 32.8868V33.0508L36.0438 33.0978C35.9968 33.5898 35.7628 33.9648 35.6568 34.1528L35.6098 34.2228C35.5868 34.2578 35.5518 34.2928 35.5398 34.3288C35.7158 34.2818 35.8918 34.2228 36.0788 34.1408C36.4778 33.9538 36.6648 33.8008 36.9228 33.5788C36.9228 33.5788 37.1108 33.3678 37.1698 33.3078C37.3338 33.1208 37.6028 32.7458 37.7788 32.2188C37.8368 32.0428 37.8838 31.8548 37.9198 31.5978C38.0128 31.0118 38.0018 30.0378 38.0018 30.0378V12.7378Z" fill="#333333"/>
<path fill-rule="evenodd" clip-rule="evenodd" d="M5.94318 14.7361C6.03018 14.6491 6.34418 14.3181 6.50118 13.8991C6.53618 13.8121 6.55318 13.7391 6.57118 13.6731C6.61418 13.5121 6.64918 13.3971 6.69318 13.2711C6.81518 12.8871 6.93718 12.5731 7.07718 12.2421C7.12918 12.0851 7.23418 11.9111 7.30318 11.7361C9.23918 7.98714 13.4252 5.30114 13.4772 5.26614C13.7912 5.07414 13.8782 4.67314 13.6862 4.36014C13.4942 4.06314 13.0932 3.97614 12.7792 4.16814C12.5702 4.30714 8.19318 7.09714 6.15218 11.1961C6.09518 11.2951 6.04118 11.3751 5.99518 11.4751L5.94318 11.5801C5.87318 11.7361 5.80318 11.9111 5.75118 12.0681C5.50718 12.8001 5.60118 13.3261 5.76918 14.0041C5.78418 14.0501 5.79218 14.0901 5.80318 14.1431C5.83718 14.2921 5.94318 14.7361 5.94318 14.7361" fill="#333333"/>
<path fill-rule="evenodd" clip-rule="evenodd" d="M0.809891 25.3406C1.01889 26.6836 1.36789 28.0086 1.83889 29.2996C3.40889 33.6246 6.49589 37.4086 10.5069 39.6936C12.5299 40.8276 14.7269 41.6296 17.0289 41.9256C19.3309 42.2396 21.6679 42.0486 23.9009 41.4726C26.1329 40.8796 28.2609 39.8506 30.0749 38.4036C31.9059 36.9386 33.4579 35.2986 34.8179 33.2236C35.1149 32.7696 34.9749 32.1426 34.5219 31.8456C34.0509 31.5496 33.4399 31.6886 33.1439 32.1426C33.1089 32.1946 33.0739 32.2646 33.0569 32.3166L33.0389 32.3866C32.3069 34.2526 30.8589 36.0136 29.2369 37.3566C27.5809 38.6996 25.6449 39.7286 23.5689 40.2516C21.5119 40.7576 19.3139 40.9316 17.2039 40.6356C15.0759 40.3566 13.0179 39.6236 11.1519 38.5776C7.41989 36.4326 4.52489 32.9096 3.05989 28.8456C1.94389 25.8286 1.61189 22.5496 1.89189 19.3236C1.94389 18.5736 2.12789 17.6266 2.16989 17.0566C2.20189 16.6386 2.11789 16.2016 1.99589 15.6436C1.96089 15.5396 1.90889 15.2596 1.90889 15.2596C1.32989 15.7776 0.951891 16.6536 0.844891 17.1956C0.324891 19.8386 0.373891 22.6546 0.809891 25.3406" fill="#333333"/>
</svg>
