<svg width="35" height="25" viewBox="0 0 35 25" fill="none" xmlns="http://www.w3.org/2000/svg">
<path fill-rule="evenodd" clip-rule="evenodd" d="M31.1622 17.41H3.18222C1.93222 17.41 0.802217 16.86 0.0222168 15.97V20.78C0.0222168 22.97 1.80222 24.75 3.99222 24.75H30.3522C32.5522 24.75 34.3222 22.97 34.3222 20.78V15.97C33.5422 16.87 32.3922 17.41 31.1622 17.41" fill="#333333"/>
<path fill-rule="evenodd" clip-rule="evenodd" d="M23.192 9.16H21.992L20.202 6.28H21.412L22.572 8.58H22.632L23.892 6.28H25.062L23.192 9.16ZM19.452 9.16C19.362 9.17 19.002 9.18 18.742 9.18C17.472 9.18 17.122 8.93 17.122 8.349V6.769H16.312V6.29H17.132V5.57H18.212V6.29H19.392V6.769H18.212V8.3C18.212 8.62 18.422 8.7 19.022 8.7C19.172 8.7 19.372 8.7 19.452 8.69V9.16ZM15.272 8.229C15.152 8.42 14.982 8.59 14.782 8.76C14.662 8.86 14.532 8.96 14.362 9.05C14.242 9.11 14.122 9.16 13.982 9.2C13.832 9.229 13.682 9.25 13.522 9.229C13.342 9.21 13.172 9.18 13.002 9.15C12.862 9.13 12.712 9.11 12.562 9.099C12.392 9.08 12.222 9.09 12.052 9.12C11.932 9.139 11.812 9.16 11.682 9.19C11.572 9.21 11.452 9.229 11.332 9.25C11.162 9.26 10.992 9.229 10.842 9.19C10.712 9.16 10.602 9.11 10.492 9.05C10.312 8.96 10.152 8.84 10.032 8.729C9.80197 8.519 9.61197 8.32 9.49197 8.099C9.41197 7.979 9.36197 7.849 9.33197 7.729C9.30197 7.61 9.28197 7.479 9.28197 7.37C9.30197 7.2 9.35197 7.03 9.47197 6.87C9.57197 6.71 9.73197 6.57 9.94197 6.45C10.152 6.34 10.402 6.26 10.692 6.229C10.822 6.22 10.962 6.21 11.102 6.22C11.342 6.229 11.582 6.26 11.812 6.29C11.962 6.32 12.102 6.34 12.242 6.349C12.342 6.37 12.452 6.36 12.552 6.349C12.732 6.33 12.902 6.29 13.072 6.26C13.212 6.229 13.362 6.22 13.512 6.21C13.652 6.2 13.802 6.2 13.932 6.21C14.192 6.22 14.422 6.269 14.632 6.349C14.782 6.4 14.912 6.47 15.032 6.55C15.052 6.559 15.072 6.57 15.092 6.59C15.042 6.61 14.982 6.63 14.942 6.66C14.782 6.74 14.622 6.83 14.522 6.93C14.422 7.04 14.352 7.13 14.332 7.25C14.282 7.49 14.382 7.71 14.642 7.91C14.752 7.99 14.882 8.059 15.042 8.11C15.112 8.139 15.202 8.16 15.292 8.18C15.292 8.19 15.282 8.21 15.272 8.229V8.229ZM12.292 6.12C12.302 6.04 12.332 5.95 12.372 5.87C12.442 5.75 12.542 5.639 12.702 5.54C12.822 5.46 12.972 5.4 13.132 5.349C13.312 5.3 13.502 5.26 13.702 5.24C13.722 5.26 13.722 5.3 13.722 5.33C13.732 5.43 13.692 5.54 13.622 5.639C13.482 5.84 13.242 6 12.912 6.11C12.812 6.15 12.682 6.17 12.552 6.18C12.472 6.19 12.392 6.19 12.312 6.2H12.292V6.12ZM34.222 12.63L32.022 3.32C31.632 1.33 30.212 0 28.462 0H5.89197C4.17197 0 2.70197 1.36 2.33197 3.3L0.0619694 12.93C0.0119694 13.139 -0.0180306 13.37 0.0119694 13.599C0.201969 15.18 1.55197 16.41 3.18197 16.41H31.162C32.492 16.41 33.622 15.59 34.112 14.45C34.362 13.87 34.362 13.24 34.222 12.63V12.63Z" fill="#333333"/>
</svg>
