<svg width="38" height="43" viewBox="0 0 38 43" fill="none" xmlns="http://www.w3.org/2000/svg">
<path fill-rule="evenodd" clip-rule="evenodd" d="M37.9592 26.1385C38.1072 25.4655 37.8212 24.8295 37.3192 24.7195C36.8182 24.6095 36.2922 25.0655 36.1432 25.7395C35.9952 26.4125 36.2822 27.0485 36.7832 27.1585C37.2842 27.2685 37.8112 26.8125 37.9592 26.1385" fill="#333333"/>
<mask id="mask0" mask-type="alpha" maskUnits="userSpaceOnUse" x="3" y="0" width="33" height="30">
<path fill-rule="evenodd" clip-rule="evenodd" d="M3.08386 0.515991H35.034V29.3274H3.08386V0.515991Z" fill="white"/>
</mask>
<g mask="url(#mask0)">
<path fill-rule="evenodd" clip-rule="evenodd" d="M3.22487 9.62378C4.53687 7.43378 6.14587 5.72378 8.02487 4.20878C9.92187 2.75278 12.1019 1.64878 14.4239 1.07578C16.7439 0.525779 19.1439 0.344779 21.5179 0.695779C23.8849 1.05178 26.1759 1.95978 28.1299 3.33078C30.0949 4.68978 31.7499 6.44678 33.0599 8.41478C33.7109 9.40578 34.2919 10.4328 34.7409 11.5668C34.9889 12.0838 35.1189 12.9958 34.9229 13.6118C34.7669 14.2558 34.5309 14.7678 34.4529 15.2308C34.4119 15.4668 34.4069 15.6568 34.4429 15.8948L34.5889 16.7148C34.6959 17.2868 34.7899 17.8678 34.8629 18.4518C35.0109 19.6198 35.0619 20.8038 35.0199 21.9838C34.9309 24.3458 34.4409 26.6858 33.6219 28.8998C33.4969 29.2388 33.1209 29.4118 32.7819 29.2868C32.4439 29.1618 32.2699 28.7848 32.3959 28.4458L32.3989 28.4358C33.1839 26.3528 33.6599 24.1568 33.7589 21.9338C33.8059 20.8228 33.7649 19.7068 33.6329 18.5998C33.5669 18.0458 33.4809 17.4938 33.3809 16.9378L33.2229 16.0658C33.1679 15.7378 33.1739 15.3468 33.2339 15.0188C33.3549 14.3488 33.6049 13.8058 33.7079 13.3318C33.8159 12.8318 33.7859 12.5538 33.5689 12.0198C33.1689 11.0228 32.6129 10.0428 31.9999 9.12378C30.7609 7.28478 29.2019 5.65578 27.3859 4.41378C25.5769 3.16078 23.4869 2.34978 21.3179 2.03478C19.1529 1.72378 16.8919 1.90778 14.7689 2.42478C12.6439 2.97178 10.6399 3.96578 8.93387 5.34578C7.27287 6.73178 5.79687 8.54778 5.01887 10.4488L4.99387 10.5098C4.78587 11.0168 4.20687 11.2588 3.69987 11.0518C3.19287 10.8438 2.95087 10.2648 3.15787 9.75778C3.17587 9.71278 3.20087 9.66478 3.22487 9.62378" fill="#333333"/>
</g>
<path fill-rule="evenodd" clip-rule="evenodd" d="M3.31319 14.5281C2.32419 14.5281 1.51819 15.3341 1.51819 16.3231C1.51819 17.3131 2.32419 18.1181 3.31319 18.1181C4.30319 18.1181 5.10819 17.3131 5.10819 16.3231C5.10819 15.3341 4.30319 14.5281 3.31319 14.5281" fill="#333333"/>
<path fill-rule="evenodd" clip-rule="evenodd" d="M3.31322 19.1292C1.76622 19.1292 0.507218 17.8702 0.507218 16.3232C0.507218 14.7752 1.76622 13.5172 3.31322 13.5172C4.86022 13.5172 6.11922 14.7752 6.11922 16.3232C6.11922 17.8702 4.86022 19.1292 3.31322 19.1292V19.1292ZM5.02022 27.1152C5.02222 27.3782 5.02322 27.6452 4.99122 27.8942C4.93122 28.3202 4.77422 28.6722 4.52122 28.9412C4.20222 29.2812 3.74722 29.4762 3.27322 29.4762C2.80022 29.4762 2.34622 29.2812 2.02622 28.9432C1.77122 28.6712 1.61422 28.3192 1.55722 27.8962C1.52322 27.6552 1.52422 27.3962 1.52522 27.2152V23.7822C1.52422 23.4872 1.52422 23.2352 1.55822 22.9982C1.61422 22.5772 1.77122 22.2252 2.02622 21.9562C2.68822 21.2512 3.85722 21.2522 4.52122 21.9552C4.77522 22.2272 4.93222 22.5782 4.98922 22.9982C5.02322 23.2512 5.02222 23.5152 5.02122 23.6942L5.02022 27.1152ZM6.72622 11.3052C6.62622 11.0012 6.47422 10.6892 6.33922 10.4392C6.30122 10.5112 6.26722 10.5852 6.22822 10.6552L6.19622 10.7182C6.18422 10.7432 6.16922 10.7692 6.15822 10.7962L6.14222 10.8352L6.12222 10.8722C6.02822 11.0542 5.92422 11.2472 5.77222 11.4502C5.56322 11.7172 5.30822 11.9282 4.97822 12.0942C4.70322 12.2192 4.39922 12.2862 4.09922 12.2862C3.99622 12.2862 3.89122 12.2782 3.83422 12.2682C3.25522 12.2062 2.73722 11.9142 2.36022 11.4242C2.09122 11.0562 1.94222 10.6072 1.94222 10.1612L1.94422 10.0832L1.94622 10.0542V10.0022L1.95122 9.95021C2.00222 9.45621 2.23322 9.07721 2.34422 8.89521L2.36222 8.86621L2.38222 8.83821L2.41822 8.78421C2.46522 8.71421 2.51622 8.63921 2.57922 8.55821C2.60922 8.51121 2.64422 8.46521 2.67522 8.41821C2.43722 8.46021 2.18022 8.52221 1.91722 8.64421C1.52122 8.83221 1.33322 8.98821 1.07922 9.20921V9.20921C1.07922 9.20921 0.885218 9.41221 0.827218 9.48021C0.664218 9.66721 0.396218 10.0412 0.221218 10.5712C0.164218 10.7422 0.117218 10.9342 0.0772184 11.1842C-0.0157816 11.7692 0.00121843 12.7432 0.00121843 12.7432V30.0412C0.00121843 30.0412 -0.0157816 31.0152 0.0772184 31.6002C0.117218 31.8502 0.164218 32.0422 0.221218 32.2132C0.396218 32.7422 0.664218 33.1182 0.827218 33.3042C0.885218 33.3722 1.07922 33.5752 1.07922 33.5752C1.33322 33.7962 1.52122 33.9522 1.91722 34.1402C2.10122 34.2262 2.28522 34.2822 2.46322 34.3262C2.44122 34.2942 2.41322 34.2572 2.39322 34.2272L2.34422 34.1522C2.23322 33.9702 2.00222 33.5922 1.95122 33.0972L1.94522 33.0462V32.9942C1.94322 32.9582 1.94222 32.9212 1.94222 32.8862C1.94222 32.4442 2.08922 31.9972 2.38022 31.5932C2.74122 31.1322 3.25522 30.8432 3.78622 30.7842C3.88922 30.7682 3.99122 30.7602 4.09222 30.7602C4.39722 30.7602 4.70722 30.8302 4.96922 30.9542C5.26122 31.0852 5.51822 31.2862 5.75422 31.5712L5.77822 31.6002L5.79922 31.6302C5.93722 31.8222 6.04122 32.0162 6.12522 32.1812L6.14722 32.2252L6.16322 32.2632C6.17222 32.2872 6.18522 32.3092 6.19522 32.3312L6.22822 32.3972C6.24122 32.4212 6.25422 32.4502 6.26722 32.4742C6.41722 32.2102 6.60822 31.8402 6.72622 31.4792C6.93622 30.8312 7.00222 30.3242 7.00222 29.5712V21.3922V13.2122C7.00222 12.4602 6.93622 11.9522 6.72622 11.3052V11.3052Z" fill="#333333"/>
<path fill-rule="evenodd" clip-rule="evenodd" d="M3.78441 22.6468C3.64741 22.5018 3.46441 22.4208 3.27341 22.4208C3.07841 22.4208 2.90241 22.4998 2.76241 22.6488C2.65541 22.7618 2.58741 22.9248 2.55841 23.1348C2.53241 23.3288 2.53441 23.5348 2.53541 23.7558V27.2098C2.53441 27.3628 2.53241 27.5688 2.55841 27.7598C2.58741 27.9728 2.65541 28.1358 2.76241 28.2508C3.02141 28.5218 3.52841 28.5218 3.78541 28.2488C3.89041 28.1358 3.95941 27.9728 3.98941 27.7598C4.01441 27.5578 4.01141 27.3388 4.00941 27.1198L4.01041 23.6988C4.01141 23.5438 4.01441 23.3318 3.98841 23.1328C3.96041 22.9258 3.89041 22.7618 3.78441 22.6468" fill="#333333"/>
<path fill-rule="evenodd" clip-rule="evenodd" d="M32.0549 14.7361C31.9679 14.6491 31.6539 14.3181 31.4969 13.8991C31.4619 13.8121 31.4449 13.7391 31.4269 13.6731C31.3839 13.5121 31.3489 13.3971 31.3049 13.2711C31.1829 12.8871 31.0609 12.5731 30.9209 12.2421C30.8689 12.0851 30.7639 11.9111 30.6949 11.7361C28.7589 7.98714 24.5729 5.30114 24.5209 5.26614C24.2069 5.07414 24.1199 4.67314 24.3109 4.36014C24.5029 4.06314 24.9049 3.97614 25.2189 4.16814C25.4279 4.30714 29.8049 7.09714 31.8459 11.1961C31.9019 11.2951 31.9569 11.3751 32.0029 11.4751L32.0549 11.5801C32.1249 11.7361 32.1949 11.9111 32.2469 12.0681C32.4909 12.8001 32.3969 13.3261 32.2289 14.0041C32.2139 14.0501 32.2059 14.0901 32.1949 14.1431C32.1599 14.2921 32.0549 14.7361 32.0549 14.7361" fill="#333333"/>
<path fill-rule="evenodd" clip-rule="evenodd" d="M37.1877 25.3406C36.9787 26.6836 36.6297 28.0086 36.1587 29.2996C34.5897 33.6246 31.5027 37.4086 27.4917 39.6936C25.4687 40.8276 23.2707 41.6296 20.9687 41.9256C18.6667 42.2396 16.3297 42.0486 14.0977 41.4726C11.8647 40.8796 9.73772 39.8506 7.92372 38.4036C6.09272 36.9386 4.54072 35.2986 3.17972 33.2236C2.88372 32.7696 3.02272 32.1426 3.47672 31.8456C3.94772 31.5496 4.55772 31.6886 4.85472 32.1426C4.88872 32.1946 4.92372 32.2646 4.94172 32.3166L4.95872 32.3866C5.69072 34.2526 7.13872 36.0136 8.76072 37.3566C10.4177 38.6996 12.3537 39.7286 14.4287 40.2516C16.4867 40.7576 18.6847 40.9316 20.7937 40.6356C22.9217 40.3566 24.9797 39.6236 26.8457 38.5776C30.5787 36.4326 33.4737 32.9096 34.9377 28.8456C36.0547 25.8286 36.3857 22.5496 36.1067 19.3236C36.0547 18.5736 35.8697 17.6266 35.8277 17.0566C35.7967 16.6386 35.8797 16.2016 36.0017 15.6436C36.0367 15.5396 36.0887 15.2596 36.0887 15.2596C36.6687 15.7776 37.0457 16.6536 37.1527 17.1956C37.6737 19.8386 37.6237 22.6546 37.1877 25.3406" fill="#333333"/>
</svg>
