<svg width="15" height="41" viewBox="0 0 15 41" fill="none" xmlns="http://www.w3.org/2000/svg">
<path fill-rule="evenodd" clip-rule="evenodd" d="M14.1141 39.7356H12.6571C12.3561 39.7356 12.1121 39.4916 12.1121 39.1916V25.5656C10.8871 26.9346 9.22014 27.7806 7.38514 27.7806C5.55014 27.7806 3.88314 26.9346 2.65714 25.5656V39.1916C2.65714 39.4916 2.41414 39.7356 2.11314 39.7356H0.656143C0.347143 39.7356 0.0601429 39.9436 0.00914286 40.2476C-0.0558571 40.6336 0.244143 40.9716 0.618143 40.9716H2.65714H12.1121H14.1511C14.5261 40.9716 14.8261 40.6336 14.7601 40.2476C14.7101 39.9436 14.4231 39.7356 14.1141 39.7356" fill="#333333"/>
<path fill-rule="evenodd" clip-rule="evenodd" d="M7.38467 9.546C6.71967 9.546 6.17967 9.006 6.17967 8.34C6.17967 7.675 6.71967 7.135 7.38467 7.135C8.05067 7.135 8.59067 7.675 8.59067 8.34C8.59067 9.006 8.05067 9.546 7.38467 9.546M7.38467 14.444C6.71967 14.444 6.17967 13.904 6.17967 13.238C6.17967 12.573 6.71967 12.033 7.38467 12.033C8.05067 12.033 8.59067 12.573 8.59067 13.238C8.59067 13.904 8.05067 14.444 7.38467 14.444M7.38467 19.342C6.71967 19.342 6.17967 18.802 6.17967 18.136C6.17967 17.471 6.71967 16.931 7.38467 16.931C8.05067 16.931 8.59067 17.471 8.59067 18.136C8.59067 18.802 8.05067 19.342 7.38467 19.342M14.1517 0H12.1127H2.65667H0.655671C0.347671 0 0.0606712 0.208 0.00867125 0.512C-0.0553288 0.898 0.243671 1.236 0.617671 1.236H2.11367C2.41367 1.236 2.65667 1.48 2.65667 1.78V23.254C3.61567 25.18 5.37267 26.477 7.38467 26.477C9.39667 26.477 11.1547 25.18 12.1127 23.254V1.78C12.1127 1.48 12.3567 1.236 12.6567 1.236H14.1137C14.4217 1.236 14.7097 1.027 14.7607 0.723C14.8257 0.338 14.5267 0 14.1517 0" fill="#333333"/>
</svg>
