<svg width="17" height="36" viewBox="0 0 17 36" fill="none" xmlns="http://www.w3.org/2000/svg">
<mask id="mask0" mask-type="alpha" maskUnits="userSpaceOnUse" x="2" y="0" width="13" height="33">
<path fill-rule="evenodd" clip-rule="evenodd" d="M2.21545 0.980957H14.1995V32.6619H2.21545V0.980957Z" fill="white"/>
</mask>
<g mask="url(#mask0)">
<path fill-rule="evenodd" clip-rule="evenodd" d="M7.30345 26.842C7.30345 26.28 7.77245 25.825 8.33445 25.825C8.89745 25.825 9.36645 26.28 9.36645 26.842C9.36645 27.404 8.89745 27.873 8.33445 27.873C7.77245 27.873 7.30345 27.404 7.30345 26.842M8.20745 30.662C6.00645 30.662 4.21545 28.871 4.21545 26.67C4.21545 25.13 5.10045 23.807 6.38045 23.141C6.37945 24.206 6.37545 25.447 6.36545 25.982C6.36545 26.53 6.33445 27.108 6.55345 27.623C6.74145 28.061 7.10045 28.42 7.53745 28.608C7.75645 28.701 7.99045 28.764 8.24045 28.779H8.33445C9.41245 28.779 10.2725 27.92 10.2725 26.842C10.2725 25.763 9.41245 24.904 8.33445 24.904C7.86545 24.904 7.44445 25.06 7.11645 25.325L7.13645 22.842C7.47945 22.745 7.83445 22.678 8.20745 22.678C10.4085 22.678 12.1995 24.469 12.1995 26.67C12.1995 28.871 10.4085 30.662 8.20745 30.662M11.1455 21.453V3.91896C11.1455 2.29596 9.83045 0.980957 8.20745 0.980957C6.58445 0.980957 5.26945 2.29596 5.26945 3.91896V21.453C3.44945 22.483 2.21545 24.434 2.21545 26.67C2.21545 29.974 4.90345 32.662 8.20745 32.662C11.5115 32.662 14.1995 29.974 14.1995 26.67C14.1995 24.434 12.9665 22.484 11.1455 21.453" fill="#333333"/>
</g>
<path fill-rule="evenodd" clip-rule="evenodd" d="M12.15 19.6309V20.7899C14.12 22.0699 15.42 24.2899 15.42 26.8199C15.42 30.8009 12.19 34.0399 8.21 34.0399C4.23 34.0399 0.99 30.8009 0.99 26.8199C0.99 24.2899 2.29 22.0699 4.27 20.7899V19.6309C1.73 21.0209 0 23.7209 0 26.8199C0 31.3409 3.68 35.0209 8.21 35.0209C12.73 35.0209 16.41 31.3409 16.41 26.8199C16.41 23.7309 14.69 21.0299 12.15 19.6309" fill="#333333"/>
</svg>
