<svg width="37" height="26" viewBox="0 0 37 26" fill="none" xmlns="http://www.w3.org/2000/svg">
<path fill-rule="evenodd" clip-rule="evenodd" d="M23.45 15.89C23.31 16.281 23.07 16.72 22.74 17.201C22.46 17.62 22.15 18 21.82 18.35C21.49 18.701 21.09 18.88 20.63 18.88C20.32 18.88 20.06 18.83 19.86 18.741C19.66 18.651 19.46 18.56 19.25 18.47C19.04 18.38 18.75 18.33 18.39 18.33C18.05 18.33 17.76 18.38 17.53 18.47C17.3 18.571 17.08 18.661 16.87 18.76C16.66 18.85 16.42 18.901 16.13 18.901C15.71 18.901 15.33 18.731 15.01 18.39C14.69 18.05 14.36 17.64 14.02 17.161C13.62 16.6 13.29 15.92 13.01 15.1C12.73 14.29 12.59 13.47 12.59 12.651C12.59 11.76 12.76 11.021 13.09 10.42C13.43 9.821 13.86 9.361 14.38 9.06C14.91 8.75 15.45 8.6 16.01 8.6C16.31 8.6 16.59 8.64 16.86 8.741C17.12 8.84 17.37 8.93 17.6 9.031C17.83 9.13 18.04 9.18 18.23 9.18C18.41 9.18 18.62 9.13 18.86 9.031C19.1 8.92 19.37 8.821 19.67 8.71C19.97 8.611 20.29 8.56 20.63 8.56C20.75 8.56 20.97 8.58 21.29 8.62C21.6 8.661 21.94 8.781 22.31 8.97C22.68 9.161 23.02 9.47 23.32 9.911C23.31 9.93 23.22 9.991 23.07 10.1C22.92 10.21 22.75 10.37 22.56 10.58C22.37 10.79 22.21 11.05 22.07 11.37C21.93 11.691 21.86 12.071 21.86 12.51C21.86 13.01 21.95 13.441 22.12 13.79C22.3 14.14 22.51 14.42 22.75 14.64C22.99 14.85 23.2 15.01 23.38 15.111C23.57 15.21 23.66 15.26 23.68 15.271C23.67 15.29 23.59 15.5 23.45 15.89V15.89ZM18.09 8.151C18.09 7.8 18.16 7.451 18.31 7.12C18.47 6.79 18.64 6.521 18.83 6.3C19.08 6.01 19.39 5.771 19.76 5.571C20.14 5.38 20.5 5.281 20.84 5.26C20.85 5.34 20.86 5.43 20.86 5.54C20.86 5.89 20.8 6.231 20.66 6.56C20.53 6.89 20.35 7.191 20.14 7.441C19.91 7.72 19.63 7.951 19.28 8.13C18.94 8.321 18.61 8.411 18.3 8.411C18.23 8.411 18.17 8.401 18.11 8.39C18.11 8.38 18.1 8.34 18.09 8.3V8.151ZM33.27 0H3C1.34 0 0 1.35 0 3V22.87C0 24.531 1.34 25.87 3 25.87H33.27C34.92 25.87 36.27 24.531 36.27 22.87V3C36.27 1.35 34.92 0 33.27 0V0Z" fill="#333333"/>
</svg>
