<svg width="48" height="40" viewBox="0 0 48 40" fill="none" xmlns="http://www.w3.org/2000/svg">
<path fill-rule="evenodd" clip-rule="evenodd" d="M2.28 27.78H45.61V2.22H2.28V27.78ZM23.94 29.34V29.29C23.94 29.23 23.95 29.17 23.98 29.11C24 29.05 24.04 29 24.07 28.96C24.12 28.91 24.17 28.86 24.24 28.83C24.31 28.79 24.37 28.77 24.43 28.77C24.44 28.78 24.44 28.8 24.44 28.82C24.44 28.88 24.43 28.94 24.4 29.01C24.38 29.07 24.34 29.12 24.31 29.16C24.27 29.21 24.21 29.26 24.15 29.29C24.09 29.32 24.03 29.34 23.97 29.34H23.94ZM23.96 29.48C23.99 29.48 24.03 29.47 24.08 29.45C24.12 29.43 24.17 29.41 24.22 29.39C24.27 29.37 24.33 29.37 24.39 29.37C24.42 29.37 24.46 29.37 24.51 29.38C24.57 29.39 24.63 29.41 24.7 29.44C24.77 29.47 24.83 29.53 24.88 29.61C24.88 29.61 24.86 29.62 24.84 29.64C24.81 29.66 24.78 29.69 24.74 29.73C24.71 29.77 24.68 29.82 24.65 29.87C24.63 29.93 24.62 30 24.62 30.08C24.62 30.17 24.63 30.25 24.66 30.31C24.7 30.37 24.73 30.42 24.78 30.46C24.82 30.5 24.86 30.53 24.89 30.55C24.92 30.57 24.94 30.57 24.95 30.58C24.94 30.58 24.93 30.62 24.9 30.69C24.88 30.76 24.84 30.84 24.78 30.92C24.72 31 24.67 31.07 24.61 31.13C24.55 31.2 24.48 31.23 24.39 31.23C24.34 31.23 24.29 31.22 24.26 31.2C24.22 31.19 24.18 31.17 24.15 31.15C24.11 31.14 24.06 31.13 23.99 31.13C23.93 31.13 23.88 31.14 23.83 31.15C23.79 31.17 23.75 31.19 23.72 31.2C23.68 31.22 23.63 31.23 23.58 31.23C23.51 31.23 23.44 31.2 23.38 31.14C23.32 31.08 23.26 31 23.2 30.92C23.13 30.82 23.07 30.69 23.02 30.55C22.97 30.4 22.95 30.25 22.95 30.1C22.95 29.94 22.98 29.81 23.04 29.7C23.1 29.59 23.17 29.51 23.27 29.46C23.36 29.4 23.46 29.37 23.56 29.37C23.62 29.37 23.67 29.38 23.72 29.4C23.76 29.42 23.81 29.43 23.85 29.45C23.89 29.47 23.93 29.48 23.96 29.48V29.48ZM45.61 0H2.28C1.02 0 0 0.99 0 2.22V31C0 32.1 0.9 33 2 33H20.89L20.31 36.49C20.07 37.94 18.82 39 17.35 39H15.89V40H31.89V39H30.43C28.96 39 27.71 37.94 27.47 36.49L26.89 33H45.89C46.99 33 47.89 32.1 47.89 31V2.22C47.89 0.99 46.87 0 45.61 0V0Z" fill="#333333"/>
</svg>
