<svg width="33" height="33" viewBox="0 0 33 33" fill="none" xmlns="http://www.w3.org/2000/svg">
<path fill-rule="evenodd" clip-rule="evenodd" d="M25.2943 32.0879H7.2063C3.3403 32.0879 0.206299 28.9539 0.206299 25.0879V6.99988C0.206299 3.13388 3.3403 -0.00012207 7.2063 -0.00012207H25.2943C29.1603 -0.00012207 32.2943 3.13388 32.2943 6.99988V25.0879C32.2943 28.9539 29.1603 32.0879 25.2943 32.0879" fill="#333333"/>
<path fill-rule="evenodd" clip-rule="evenodd" d="M5.2449 22.005H6.5719V14.076H5.2449V22.005ZM5.3209 12.49C5.1589 12.328 5.0769 12.132 5.0769 11.903C5.0769 11.669 5.1589 11.473 5.3209 11.312C5.4839 11.152 5.6789 11.072 5.9079 11.072C6.1419 11.072 6.3379 11.152 6.4979 11.312C6.6589 11.473 6.7389 11.669 6.7389 11.903C6.7389 12.132 6.6589 12.328 6.4979 12.49C6.3379 12.653 6.1419 12.734 5.9079 12.734C5.6789 12.734 5.4839 12.653 5.3209 12.49V12.49Z" fill="white"/>
<path fill-rule="evenodd" clip-rule="evenodd" d="M15.191 20.3774C15.737 20.0144 16.158 19.5024 16.453 18.8414C16.748 18.1804 16.895 17.4024 16.895 16.5084V16.4934C16.895 15.5934 16.747 14.8134 16.449 14.1524C16.152 13.4914 15.728 12.9814 15.179 12.6244C14.63 12.2654 13.982 12.0864 13.235 12.0864C12.488 12.0864 11.838 12.2654 11.288 12.6244C10.736 12.9814 10.31 13.4904 10.01 14.1484C9.71096 14.8074 9.55996 15.5884 9.55996 16.4934V16.5084C9.55996 17.4084 9.71096 18.1884 10.01 18.8494C10.31 19.5094 10.735 20.0204 11.284 20.3814C11.833 20.7424 12.483 20.9224 13.235 20.9224C13.993 20.9224 14.644 20.7414 15.191 20.3774M10.533 21.4944C9.77296 21.0324 9.18696 20.3764 8.77496 19.5274C8.36396 18.6784 8.15796 17.6724 8.15796 16.5084V16.4934C8.15796 15.3294 8.36496 14.3244 8.77896 13.4774C9.19296 12.6314 9.77996 11.9774 10.541 11.5144C11.3 11.0524 12.199 10.8204 13.235 10.8204C14.272 10.8204 15.17 11.0524 15.926 11.5144C16.684 11.9774 17.268 12.6314 17.68 13.4774C18.092 14.3244 18.297 15.3294 18.297 16.4934V16.5084C18.297 17.6724 18.092 18.6784 17.68 19.5274C17.268 20.3764 16.685 21.0324 15.93 21.4944C15.175 21.9574 14.277 22.1884 13.235 22.1884C12.193 22.1884 11.293 21.9574 10.533 21.4944" fill="white"/>
<path fill-rule="evenodd" clip-rule="evenodd" d="M21.5112 21.8184C20.9082 21.5724 20.4312 21.2204 20.0772 20.7624C19.7242 20.3054 19.5252 19.7634 19.4792 19.1384L19.4722 19.0314H20.8442L20.8592 19.1384C20.9152 19.5044 21.0652 19.8204 21.3092 20.0884C21.5532 20.3544 21.8772 20.5604 22.2812 20.7054C22.6852 20.8504 23.1522 20.9224 23.6802 20.9224C24.2082 20.9224 24.6662 20.8474 25.0522 20.6974C25.4392 20.5474 25.7382 20.3334 25.9482 20.0534C26.1592 19.7744 26.2652 19.4464 26.2652 19.0694V19.0624C26.2652 18.5794 26.0972 18.1934 25.7612 17.9034C25.4262 17.6134 24.8792 17.3854 24.1222 17.2174L22.9032 16.9504C21.8292 16.7124 21.0352 16.3444 20.5202 15.8484C20.0042 15.3534 19.7462 14.7044 19.7462 13.9014V13.8934C19.7512 13.2884 19.9182 12.7554 20.2492 12.2964C20.5792 11.8364 21.0352 11.4754 21.6172 11.2134C22.1992 10.9514 22.8662 10.8204 23.6192 10.8204C24.3352 10.8204 24.9762 10.9494 25.5402 11.2054C26.1052 11.4624 26.5562 11.8194 26.8942 12.2764C27.2322 12.7344 27.4212 13.2634 27.4612 13.8624L27.4692 13.9774H26.0972L26.0812 13.8704C26.0262 13.4944 25.8882 13.1734 25.6702 12.9094C25.4512 12.6454 25.1652 12.4424 24.8122 12.2994C24.4592 12.1574 24.0482 12.0864 23.5812 12.0864C23.0932 12.0864 22.6662 12.1604 22.3002 12.3074C21.9342 12.4554 21.6512 12.6604 21.4492 12.9244C21.2492 13.1894 21.1492 13.4994 21.1492 13.8554V13.8624C21.1492 14.3104 21.3192 14.6784 21.6592 14.9684C22.0002 15.2574 22.5292 15.4814 23.2452 15.6394L24.4652 15.9064C25.5942 16.1554 26.4092 16.5224 26.9122 17.0074C27.4162 17.4934 27.6672 18.1554 27.6672 18.9934V19.0014C27.6672 19.6524 27.5032 20.2164 27.1762 20.6934C26.8482 21.1724 26.3802 21.5404 25.7732 21.7994C25.1652 22.0584 24.4432 22.1884 23.6042 22.1884C22.8112 22.1884 22.1142 22.0654 21.5112 21.8184" fill="white"/>
</svg>
