<svg width="29" height="42" viewBox="0 0 29 42" fill="none" xmlns="http://www.w3.org/2000/svg">
<path fill-rule="evenodd" clip-rule="evenodd" d="M2 38H27V4H2V38ZM14.5 41C13.951 41 13.5 40.55 13.5 40C13.5 39.45 13.951 39 14.5 39C15.051 39 15.5 39.45 15.5 40C15.5 40.55 15.051 41 14.5 41V41ZM14.5 1.5C14.781 1.5 15 1.719 15 2C15 2.28 14.781 2.5 14.5 2.5C14.23 2.5 14 2.28 14 2C14 1.719 14.23 1.5 14.5 1.5V1.5ZM27 0H2C0.901 0 0 0.9 0 2V40C0 41.1 0.901 42 2 42H27C28.111 42 29 41.1 29 40V2C29 0.9 28.111 0 27 0V0Z" fill="#333333"/>
</svg>
