<svg width="23" height="32" viewBox="0 0 23 32" fill="none" xmlns="http://www.w3.org/2000/svg">
<path fill-rule="evenodd" clip-rule="evenodd" d="M1 29H22V3H1V29ZM11.5 31.25C11.091 31.25 10.75 30.911 10.75 30.5C10.75 30.09 11.091 29.75 11.5 29.75C11.921 29.75 12.25 30.09 12.25 30.5C12.25 30.911 11.921 31.25 11.5 31.25V31.25ZM11.5 1.25C11.641 1.25 11.75 1.36 11.75 1.5C11.75 1.64 11.641 1.75 11.5 1.75C11.361 1.75 11.25 1.64 11.25 1.5C11.25 1.36 11.361 1.25 11.5 1.25V1.25ZM21 0H2C0.901 0 0 0.9 0 2V30C0 31.1 0.901 32 2 32H21C22.111 32 23 31.1 23 30V2C23 0.9 22.111 0 21 0V0Z" fill="#333333"/>
</svg>
