<svg width="33" height="33" viewBox="0 0 33 33" fill="none" xmlns="http://www.w3.org/2000/svg">
<path fill-rule="evenodd" clip-rule="evenodd" d="M25.797 32.588H7.70898C3.84298 32.588 0.708984 29.454 0.708984 25.588V7.5C0.708984 3.634 3.84298 0.5 7.70898 0.5H25.797C29.663 0.5 32.797 3.634 32.797 7.5V25.588C32.797 29.454 29.663 32.588 25.797 32.588" fill="#333333"/>
<path fill-rule="evenodd" clip-rule="evenodd" d="M9.42706 11.899H10.1071V7.83697H9.42706V11.899ZM9.46606 7.02497C9.38306 6.94097 9.34106 6.84097 9.34106 6.72397C9.34106 6.60497 9.38306 6.50297 9.46606 6.42097C9.54906 6.33897 9.65006 6.29797 9.76706 6.29797C9.88706 6.29797 9.98806 6.33897 10.0701 6.42097C10.1521 6.50297 10.1931 6.60497 10.1931 6.72397C10.1931 6.84097 10.1521 6.94097 10.0701 7.02497C9.98806 7.10797 9.88706 7.14997 9.76706 7.14997C9.65006 7.14997 9.54906 7.10797 9.46606 7.02497V7.02497Z" fill="white"/>
<path fill-rule="evenodd" clip-rule="evenodd" d="M11.4895 9.26318H12.9665C13.3695 9.26318 13.6815 9.15818 13.9035 8.94918C14.1255 8.73918 14.2355 8.44918 14.2355 8.07918V8.07218C14.2355 7.69918 14.1255 7.40918 13.9035 7.20018C13.6815 6.99218 13.3695 6.88818 12.9665 6.88818H11.4895V6.26318H13.1455C13.5005 6.26318 13.8125 6.33918 14.0835 6.49018C14.3535 6.64018 14.5665 6.85118 14.7215 7.12218C14.8775 7.39318 14.9545 7.70718 14.9545 8.06418V8.07218C14.9545 8.42918 14.8775 8.74318 14.7215 9.01718C14.5665 9.29018 14.3535 9.50418 14.0835 9.65818C13.8125 9.81118 13.5005 9.88818 13.1455 9.88818H11.4895V9.26318ZM11.1375 11.9002H11.8405V6.26318H11.1375V11.9002Z" fill="white"/>
<path fill-rule="evenodd" clip-rule="evenodd" d="M15.7825 11.8256C15.5795 11.7236 15.4215 11.5806 15.3075 11.3956C15.1945 11.2106 15.1375 10.9956 15.1375 10.7516V10.7436C15.1375 10.3976 15.2665 10.1206 15.5245 9.91364C15.7825 9.70664 16.1445 9.58964 16.6105 9.56364L18.1145 9.47764V10.0056L16.6885 10.0916C16.4185 10.1066 16.2075 10.1716 16.0575 10.2866C15.9085 10.4016 15.8335 10.5536 15.8335 10.7436V10.7516C15.8335 10.9466 15.9065 11.1016 16.0535 11.2166C16.2015 11.3306 16.3965 11.3886 16.6415 11.3886C16.8555 11.3886 17.0475 11.3436 17.2185 11.2536C17.3885 11.1636 17.5235 11.0406 17.6245 10.8846C17.7245 10.7276 17.7745 10.5526 17.7745 10.3566V9.15764C17.7745 8.90964 17.6975 8.71564 17.5425 8.57364C17.3865 8.43164 17.1685 8.36064 16.8845 8.36064C16.6235 8.36064 16.4135 8.41764 16.2535 8.53064C16.0935 8.64364 15.9935 8.79164 15.9545 8.97364L15.9465 9.00964H15.2905L15.2945 8.96664C15.3145 8.74264 15.3905 8.53864 15.5225 8.35664C15.6545 8.17464 15.8365 8.02964 16.0675 7.92164C16.2995 7.81364 16.5745 7.75964 16.8915 7.75964C17.2125 7.75964 17.4885 7.81364 17.7215 7.92364C17.9555 8.03264 18.1355 8.18664 18.2625 8.38664C18.3905 8.58564 18.4545 8.82064 18.4545 9.09164V11.8996H17.7745V11.2396H17.7595C17.6805 11.3886 17.5765 11.5176 17.4465 11.6286C17.3165 11.7396 17.1705 11.8256 17.0075 11.8866C16.8445 11.9476 16.6725 11.9776 16.4895 11.9776C16.2205 11.9776 15.9855 11.9276 15.7825 11.8256" fill="white"/>
<path fill-rule="evenodd" clip-rule="evenodd" d="M21.5872 11.1889C21.7642 11.0639 21.9022 10.8879 22.0032 10.6619C22.1042 10.4349 22.1532 10.1709 22.1532 9.86894V9.86494C22.1532 9.56294 22.1032 9.29894 22.0012 9.07394C21.8992 8.84894 21.7612 8.67294 21.5852 8.54794C21.4092 8.42294 21.2072 8.36094 20.9782 8.36094C20.7382 8.36094 20.5312 8.42194 20.3572 8.54394C20.1822 8.66694 20.0482 8.83994 19.9542 9.06394C19.8602 9.28794 19.8142 9.55494 19.8142 9.86494V9.86894C19.8142 10.1789 19.8602 10.4469 19.9542 10.6729C20.0482 10.8999 20.1822 11.0739 20.3572 11.1949C20.5312 11.3159 20.7382 11.3759 20.9782 11.3759C21.2072 11.3759 21.4102 11.3139 21.5872 11.1889M19.9372 11.7179C19.6782 11.5449 19.4772 11.2999 19.3332 10.9839C19.1902 10.6679 19.1182 10.2959 19.1182 9.86894V9.86494C19.1182 9.43794 19.1912 9.06594 19.3352 8.75094C19.4802 8.43694 19.6812 8.19194 19.9392 8.01894C20.1962 7.84594 20.4942 7.75894 20.8332 7.75894C21.1192 7.75894 21.3762 7.82694 21.6032 7.96194C21.8292 8.09794 22.0062 8.28294 22.1342 8.51694H22.1492V6.26294H22.8292V11.8999H22.1492V11.2119H22.1342C22.0062 11.4489 21.8322 11.6359 21.6122 11.7729C21.3932 11.9099 21.1372 11.9779 20.8452 11.9779C20.4982 11.9779 20.1952 11.8919 19.9372 11.7179" fill="white"/>
<path fill-rule="evenodd" clip-rule="evenodd" d="M13.1478 24.2964C13.7568 23.8914 14.2258 23.3194 14.5548 22.5824C14.8838 21.8454 15.0488 20.9774 15.0488 19.9794V19.9624C15.0488 18.9584 14.8828 18.0884 14.5508 17.3504C14.2188 16.6134 13.7478 16.0454 13.1348 15.6454C12.5218 15.2454 11.7988 15.0454 10.9648 15.0454C10.1318 15.0454 9.4078 15.2454 8.7928 15.6454C8.1758 16.0454 7.7018 16.6124 7.3668 17.3464C7.0328 18.0814 6.8658 18.9534 6.8658 19.9624V19.9794C6.8658 20.9834 7.0328 21.8544 7.3668 22.5904C7.7018 23.3284 8.1748 23.8984 8.7878 24.3004C9.3998 24.7034 10.1268 24.9044 10.9648 24.9044C11.8098 24.9044 12.5378 24.7024 13.1478 24.2964M7.9498 25.5434C7.1018 25.0264 6.4488 24.2954 5.9888 23.3484C5.5298 22.4004 5.2998 21.2784 5.2998 19.9794V19.9624C5.2998 18.6634 5.5308 17.5424 5.9938 16.5984C6.4558 15.6534 7.1108 14.9234 7.9588 14.4074C8.8058 13.8914 9.8088 13.6334 10.9648 13.6334C12.1228 13.6334 13.1238 13.8914 13.9678 14.4074C14.8128 14.9234 15.4648 15.6534 15.9248 16.5984C16.3838 17.5424 16.6138 18.6634 16.6138 19.9624V19.9794C16.6138 21.2784 16.3838 22.4004 15.9248 23.3484C15.4648 24.2954 14.8148 25.0264 13.9728 25.5434C13.1298 26.0594 12.1278 26.3174 10.9648 26.3174C9.8028 26.3174 8.7968 26.0594 7.9498 25.5434" fill="white"/>
<path fill-rule="evenodd" clip-rule="evenodd" d="M20.1996 25.9044C19.5276 25.6294 18.9946 25.2374 18.5996 24.7264C18.2066 24.2164 17.9836 23.6124 17.9316 22.9144L17.9246 22.7954H19.4556L19.4716 22.9144C19.5346 23.3224 19.7016 23.6754 19.9736 23.9734C20.2466 24.2714 20.6076 24.5014 21.0586 24.6624C21.5096 24.8244 22.0296 24.9044 22.6196 24.9044C23.2096 24.9044 23.7206 24.8214 24.1506 24.6544C24.5816 24.4874 24.9156 24.2474 25.1506 23.9354C25.3866 23.6234 25.5036 23.2574 25.5036 22.8384V22.8294C25.5036 22.2904 25.3166 21.8594 24.9416 21.5364C24.5676 21.2134 23.9586 20.9574 23.1126 20.7704L21.7526 20.4724C20.5546 20.2064 19.6696 19.7964 19.0946 19.2434C18.5176 18.6904 18.2296 17.9664 18.2296 17.0704V17.0614C18.2356 16.3864 18.4236 15.7924 18.7916 15.2794C19.1606 14.7664 19.6696 14.3634 20.3186 14.0714C20.9686 13.7794 21.7126 13.6334 22.5526 13.6334C23.3506 13.6334 24.0656 13.7764 24.6956 14.0634C25.3246 14.3494 25.8286 14.7474 26.2056 15.2584C26.5826 15.7684 26.7936 16.3584 26.8396 17.0274L26.8476 17.1554H25.3166L25.2996 17.0364C25.2366 16.6164 25.0836 16.2594 24.8406 15.9644C24.5956 15.6694 24.2766 15.4424 23.8836 15.2834C23.4886 15.1254 23.0306 15.0454 22.5096 15.0454C21.9646 15.0454 21.4886 15.1274 21.0806 15.2924C20.6716 15.4564 20.3556 15.6864 20.1316 15.9814C19.9076 16.2764 19.7956 16.6224 19.7956 17.0194V17.0274C19.7956 17.5274 19.9856 17.9374 20.3656 18.2614C20.7456 18.5844 21.3356 18.8344 22.1356 19.0094L23.4956 19.3074C24.7556 19.5854 25.6656 19.9954 26.2266 20.5364C26.7886 21.0784 27.0686 21.8174 27.0686 22.7524V22.7614C27.0686 23.4874 26.8866 24.1164 26.5196 24.6494C26.1546 25.1824 25.6326 25.5934 24.9546 25.8834C24.2766 26.1724 23.4706 26.3174 22.5346 26.3174C21.6496 26.3174 20.8716 26.1794 20.1996 25.9044" fill="white"/>
</svg>
