<svg width="23" height="45" viewBox="0 0 23 45" fill="none" xmlns="http://www.w3.org/2000/svg">
<path fill-rule="evenodd" clip-rule="evenodd" d="M13.462 14.521C13.373 14.784 13.244 15.027 13.094 15.26C13.001 15.403 12.899 15.538 12.776 15.657C12.691 15.739 12.597 15.812 12.487 15.861C12.377 15.909 12.264 15.924 12.145 15.905C12.011 15.884 11.883 15.841 11.756 15.796C11.649 15.759 11.54 15.729 11.428 15.713C11.298 15.695 11.17 15.706 11.046 15.744C10.951 15.773 10.858 15.81 10.766 15.844C10.68 15.875 10.592 15.902 10.501 15.916C10.371 15.936 10.249 15.912 10.132 15.854C10.034 15.806 9.949 15.741 9.872 15.666C9.733 15.532 9.619 15.376 9.518 15.212C9.352 14.941 9.212 14.658 9.112 14.355C9.058 14.188 9.017 14.017 8.991 13.843C8.968 13.679 8.959 13.514 8.965 13.349C8.974 13.114 9.011 12.883 9.095 12.661C9.176 12.446 9.295 12.256 9.459 12.095C9.616 11.941 9.801 11.838 10.019 11.795C10.121 11.775 10.225 11.77 10.329 11.776C10.512 11.787 10.688 11.833 10.862 11.882C10.968 11.911 11.075 11.935 11.182 11.959C11.261 11.978 11.339 11.967 11.417 11.951C11.551 11.922 11.68 11.876 11.81 11.834C11.917 11.8 12.025 11.774 12.138 11.758C12.243 11.745 12.35 11.745 12.455 11.757C12.649 11.78 12.825 11.845 12.984 11.956C13.095 12.032 13.19 12.125 13.276 12.225C13.292 12.243 13.308 12.262 13.324 12.281C13.286 12.315 13.248 12.349 13.212 12.382C13.091 12.495 12.978 12.614 12.896 12.758C12.819 12.892 12.769 13.034 12.752 13.187C12.716 13.518 12.792 13.821 12.991 14.091C13.072 14.201 13.166 14.3 13.282 14.375C13.343 14.414 13.408 14.444 13.48 14.466C13.474 14.484 13.468 14.502 13.462 14.521V14.521ZM5.611 7.481C5.611 8.514 4.774 9.352 3.74 9.352C2.708 9.352 1.87 8.514 1.87 7.481V3.741C1.87 2.708 2.708 1.871 3.74 1.871C4.774 1.871 5.611 2.708 5.611 3.741V7.481ZM11.223 11.652C11.231 11.535 11.249 11.419 11.283 11.307C11.335 11.137 11.412 10.981 11.527 10.845C11.617 10.737 11.729 10.655 11.853 10.59C11.986 10.52 12.129 10.473 12.276 10.439C12.277 10.438 12.278 10.439 12.28 10.439C12.293 10.476 12.298 10.514 12.299 10.552C12.303 10.701 12.27 10.843 12.218 10.979C12.115 11.254 11.939 11.471 11.691 11.63C11.608 11.684 11.515 11.712 11.417 11.726C11.358 11.734 11.298 11.741 11.237 11.748C11.232 11.748 11.226 11.748 11.222 11.748C11.222 11.715 11.221 11.684 11.223 11.652V11.652ZM19.442 0H3C1.343 0 0 1.344 0 3V41.5C0 43.157 1.343 44.5 3 44.5H19.442C21.1 44.5 22.442 43.157 22.442 41.5V3C22.442 1.344 21.1 0 19.442 0V0Z" fill="#333333"/>
<path fill-rule="evenodd" clip-rule="evenodd" d="M4.13386 5.61133C4.13386 5.39333 3.95786 5.21733 3.73986 5.21733C3.52386 5.21733 3.34686 5.39333 3.34686 5.61133C3.34686 5.82833 3.52386 6.00533 3.73986 6.00533C3.95786 6.00533 4.13386 5.82833 4.13386 5.61133" fill="#333333"/>
<path fill-rule="evenodd" clip-rule="evenodd" d="M3.74026 2.59912C3.23026 2.59912 2.81726 3.01212 2.81726 3.52212C2.81726 4.03212 3.23026 4.44612 3.74026 4.44612C4.25126 4.44612 4.66426 4.03212 4.66426 3.52212C4.66426 3.01212 4.25126 2.59912 3.74026 2.59912" fill="#333333"/>
<path fill-rule="evenodd" clip-rule="evenodd" d="M3.74026 6.77686C3.23026 6.77686 2.81726 7.18986 2.81726 7.69986C2.81726 8.20986 3.23026 8.62286 3.74026 8.62286C4.25126 8.62286 4.66426 8.20986 4.66426 7.69986C4.66426 7.18986 4.25126 6.77686 3.74026 6.77686" fill="#333333"/>
</svg>
