<svg width="22" height="45" viewBox="0 0 22 45" fill="none" xmlns="http://www.w3.org/2000/svg">
<path fill-rule="evenodd" clip-rule="evenodd" d="M20.707 41.474C20.707 42.581 19.797 43.479 18.675 43.479H3.102C1.979 43.479 1.069 42.581 1.069 41.474V3.027C1.069 1.919 1.979 1.021 3.102 1.021H5.144C5.318 1.021 5.459 1.161 5.459 1.333V1.548C5.459 2.101 5.918 2.554 6.478 2.554H15.298C15.859 2.554 16.317 2.101 16.317 1.548V1.333C16.317 1.161 16.458 1.021 16.633 1.021H18.675C19.797 1.021 20.707 1.919 20.707 3.027V41.474ZM10.054 1.33H12.413C12.512 1.33 12.593 1.41 12.593 1.508C12.593 1.606 12.512 1.686 12.413 1.686H10.054C9.955 1.686 9.874 1.606 9.874 1.508C9.874 1.41 9.955 1.33 10.054 1.33V1.33ZM13.107 1.33H13.484C13.583 1.33 13.664 1.41 13.664 1.508C13.664 1.606 13.583 1.686 13.484 1.686H13.107C13.008 1.686 12.926 1.606 12.926 1.508C12.926 1.41 13.008 1.33 13.107 1.33V1.33ZM18.591 0H15.298H6.478H3.186C1.426 0 0 1.407 0 3.143V41.356C0 43.092 1.426 44.5 3.186 44.5H18.591C20.35 44.5 21.776 43.092 21.776 41.356V3.143C21.776 1.407 20.35 0 18.591 0V0Z" fill="#333333"/>
</svg>
