<svg width="38" height="47" viewBox="0 0 38 47" fill="none" xmlns="http://www.w3.org/2000/svg">
<path fill-rule="evenodd" clip-rule="evenodd" d="M9.24 7.22976H11.4C11.49 7.22976 11.57 7.29976 11.57 7.38976C11.57 7.47976 11.49 7.54976 11.4 7.54976H9.24C9.14 7.54976 9.07 7.47976 9.07 7.38976C9.07 7.29976 9.14 7.22976 9.24 7.22976M12.04 7.22976H12.39C12.48 7.22976 12.55 7.29976 12.55 7.38976C12.55 7.47976 12.48 7.54976 12.39 7.54976H12.04C11.95 7.54976 11.87 7.47976 11.87 7.38976C11.87 7.29976 11.95 7.22976 12.04 7.22976M14.52 46.0598H2.85C1.82 46.0598 0.98 45.2298 0.98 44.2098V8.78976C0.98 7.76976 1.82 6.93976 2.85 6.93976H4.73C4.89 6.93976 5.02 7.06976 5.02 7.22976V7.42976C5.02 7.93976 5.44 8.34976 5.95 8.34976H13.5V5.99976H2.93C1.31 5.99976 0 7.29976 0 8.89976V44.0998C0 45.6998 1.31 46.9998 1.93 46.9998H15.87C15.95 46.9998 15.13 46.6398 14.52 46.0598" fill="#333333"/>
<path fill-rule="evenodd" clip-rule="evenodd" d="M36.3719 43.804C36.3719 44.974 35.4109 45.922 34.2259 45.922H17.7779C16.5919 45.922 15.6309 44.973 15.6309 43.804V3.197C15.6309 2.027 16.5919 1.079 17.7779 1.079H19.9349C20.1189 1.079 20.2679 1.226 20.2679 1.408V1.636C20.2679 2.219 20.7519 2.697 21.3439 2.697H30.6599C31.2509 2.697 31.7349 2.219 31.7349 1.636V1.408C31.7349 1.226 31.8849 1.079 32.0689 1.079H34.2259C35.4109 1.079 36.3719 2.027 36.3719 3.197V43.804ZM25.1209 1.405H27.6119C27.7169 1.405 27.8029 1.489 27.8029 1.593C27.8029 1.696 27.7169 1.781 27.6119 1.781H25.1209C25.0159 1.781 24.9299 1.696 24.9299 1.593C24.9299 1.489 25.0159 1.405 25.1209 1.405V1.405ZM28.3449 1.405H28.7429C28.8479 1.405 28.9339 1.489 28.9339 1.593C28.9339 1.696 28.8479 1.781 28.7429 1.781H28.3449C28.2399 1.781 28.1539 1.696 28.1539 1.593C28.1539 1.489 28.2399 1.405 28.3449 1.405V1.405ZM34.1369 0H30.6599H21.3439H17.8669C16.0079 0 14.5009 1.486 14.5009 3.32V43.679C14.5009 45.513 16.0079 47 17.8669 47H34.1369C35.9949 47 37.5009 45.513 37.5009 43.679V3.32C37.5009 1.486 35.9949 0 34.1369 0V0Z" fill="#333333"/>
</svg>
