<svg width="23" height="47" viewBox="0 0 23 47" fill="none" xmlns="http://www.w3.org/2000/svg">
<path fill-rule="evenodd" clip-rule="evenodd" d="M2.59143 4.18555C2.59143 5.01355 3.26243 5.68555 4.09143 5.68555C4.91943 5.68555 5.59143 5.01355 5.59143 4.18555C5.59143 3.35655 4.91943 2.68555 4.09143 2.68555C3.26243 2.68555 2.59143 3.35655 2.59143 4.18555" fill="#333333"/>
<path fill-rule="evenodd" clip-rule="evenodd" d="M2.59143 8.81946C2.59143 9.64846 3.26243 10.3195 4.09143 10.3195C4.91943 10.3195 5.59143 9.64846 5.59143 8.81946C5.59143 7.99146 4.91943 7.31946 4.09143 7.31946C3.26243 7.31946 2.59143 7.99146 2.59143 8.81946" fill="#333333"/>
<path fill-rule="evenodd" clip-rule="evenodd" d="M7.79456 3.21643C7.79456 3.54943 8.06456 3.82043 8.39856 3.82043C8.73156 3.82043 9.00256 3.54943 9.00256 3.21643C9.00256 2.88343 8.73156 2.61243 8.39856 2.61243C8.06456 2.61243 7.79456 2.88343 7.79456 3.21643" fill="#333333"/>
<path fill-rule="evenodd" clip-rule="evenodd" d="M6.97815 6.41272C6.97815 7.24072 7.64915 7.91272 8.47815 7.91272C9.30715 7.91272 9.97815 7.24072 9.97815 6.41272C9.97815 5.58372 9.30715 4.91272 8.47815 4.91272C7.64915 4.91272 6.97815 5.58372 6.97815 6.41272" fill="#333333"/>
<path fill-rule="evenodd" clip-rule="evenodd" d="M13.672 24.297C13.582 24.565 13.45 24.812 13.297 25.048C13.203 25.193 13.1 25.331 12.975 25.451C12.888 25.536 12.793 25.609 12.681 25.658C12.569 25.708 12.454 25.723 12.333 25.704C12.197 25.682 12.068 25.638 11.938 25.593C11.829 25.555 11.719 25.525 11.605 25.509C11.473 25.49 11.343 25.501 11.217 25.54C11.12 25.57 11.026 25.608 10.932 25.642C10.844 25.674 10.756 25.701 10.663 25.715C10.531 25.735 10.406 25.71 10.288 25.652C10.189 25.603 10.103 25.537 10.024 25.461C9.882 25.325 9.767 25.167 9.664 25C9.495 24.725 9.353 24.437 9.252 24.129C9.196 23.959 9.155 23.785 9.129 23.608C9.106 23.442 9.097 23.275 9.103 23.107C9.111 22.867 9.149 22.632 9.234 22.407C9.317 22.189 9.438 21.996 9.604 21.832C9.764 21.675 9.952 21.571 10.173 21.527C10.276 21.506 10.382 21.501 10.488 21.508C10.674 21.52 10.853 21.566 11.03 21.615C11.138 21.645 11.246 21.67 11.356 21.694C11.436 21.713 11.515 21.702 11.594 21.685C11.731 21.657 11.86 21.609 11.993 21.567C12.102 21.532 12.213 21.505 12.326 21.49C12.434 21.476 12.541 21.476 12.649 21.489C12.845 21.512 13.025 21.578 13.187 21.691C13.299 21.767 13.395 21.862 13.484 21.964C13.499 21.983 13.516 22.002 13.532 22.021C13.493 22.056 13.455 22.089 13.417 22.124C13.294 22.238 13.18 22.359 13.096 22.506C13.019 22.642 12.968 22.787 12.951 22.942C12.914 23.278 12.991 23.586 13.193 23.86C13.276 23.972 13.371 24.072 13.489 24.149C13.551 24.188 13.617 24.219 13.69 24.241C13.684 24.26 13.678 24.279 13.672 24.297V24.297ZM4.225 11.22C2.883 11.22 1.786 10.123 1.786 8.781V4.224C1.786 2.882 2.883 1.785 4.225 1.785H8.345C9.686 1.785 10.783 2.882 10.783 4.224V8.781C10.783 10.123 9.687 11.22 8.345 11.22H4.225ZM11.397 21.382C11.404 21.263 11.423 21.146 11.458 21.031C11.51 20.859 11.589 20.7 11.706 20.562C11.798 20.452 11.911 20.369 12.036 20.303C12.173 20.232 12.318 20.184 12.467 20.149C12.468 20.149 12.469 20.149 12.472 20.15C12.485 20.187 12.489 20.225 12.49 20.265C12.493 20.415 12.461 20.559 12.408 20.699C12.303 20.978 12.124 21.198 11.873 21.359C11.788 21.414 11.693 21.443 11.594 21.457C11.533 21.465 11.473 21.472 11.411 21.479C11.405 21.48 11.4 21.479 11.396 21.479C11.396 21.446 11.394 21.414 11.397 21.382V21.382ZM19.79 0H3C1.343 0 0 1.343 0 3V44C0 45.656 1.343 47 3 47H19.79C21.447 47 22.79 45.656 22.79 44V3C22.79 1.343 21.447 0 19.79 0V0Z" fill="#333333"/>
</svg>
