<svg width="20" height="39" viewBox="0 0 20 39" fill="none" xmlns="http://www.w3.org/2000/svg">
<path fill-rule="evenodd" clip-rule="evenodd" d="M0.864 34.687H18.593V4.254H0.864V34.687ZM9.729 38.038C9.067 38.038 8.531 37.501 8.531 36.839C8.531 36.178 9.067 35.641 9.729 35.641C10.39 35.641 10.927 36.178 10.927 36.839C10.927 37.501 10.39 38.038 9.729 38.038V38.038ZM6.334 2.064C6.405 2.064 6.463 2.122 6.463 2.193C6.463 2.264 6.405 2.322 6.334 2.322C6.263 2.322 6.205 2.264 6.205 2.193C6.205 2.122 6.263 2.064 6.334 2.064V2.064ZM7.709 2.064H11.726C11.797 2.064 11.855 2.122 11.855 2.193C11.855 2.264 11.797 2.322 11.726 2.322H7.709C7.638 2.322 7.58 2.264 7.58 2.193C7.58 2.122 7.638 2.064 7.709 2.064V2.064ZM16.921 0H2.536C1.141 0 0 1.141 0 2.535V36.463C0 37.858 1.141 39 2.536 39H16.921C18.316 39 19.457 37.858 19.457 36.463V2.535C19.457 1.141 18.316 0 16.921 0V0Z" fill="#333333"/>
</svg>
