<svg width="34" height="18" viewBox="0 0 34 18" fill="none" xmlns="http://www.w3.org/2000/svg">
<path fill-rule="evenodd" clip-rule="evenodd" d="M27.967 13.48V12.48C27.967 12.204 27.743 11.98 27.467 11.98H6.493C6.217 11.98 5.993 12.204 5.993 12.48V13.48C5.993 13.756 6.217 13.98 6.493 13.98H27.467C27.743 13.98 27.967 13.756 27.967 13.48M31.962 13.48V12.48C31.962 12.204 31.738 11.98 31.462 11.98H30.462C30.186 11.98 29.962 12.204 29.962 12.48V13.48C29.962 13.756 30.186 13.98 30.462 13.98H31.462C31.738 13.98 31.962 13.756 31.962 13.48M31.962 5.449V4.449C31.962 4.173 31.738 3.949 31.462 3.949H30.462C30.186 3.949 29.962 4.173 29.962 4.449V5.449C29.962 5.725 30.186 5.949 30.462 5.949H31.462C31.738 5.949 31.962 5.725 31.962 5.449M27.967 5.449V4.449C27.967 4.173 27.743 3.949 27.467 3.949H26.467C26.191 3.949 25.967 4.173 25.967 4.449V5.449C25.967 5.725 26.191 5.949 26.467 5.949H27.467C27.743 5.949 27.967 5.725 27.967 5.449M23.972 5.449V4.449C23.972 4.173 23.748 3.949 23.472 3.949H22.472C22.196 3.949 21.972 4.173 21.972 4.449V5.449C21.972 5.725 22.196 5.949 22.472 5.949H23.472C23.748 5.949 23.972 5.725 23.972 5.449M19.977 5.449V4.449C19.977 4.173 19.754 3.949 19.477 3.949H18.477C18.201 3.949 17.977 4.173 17.977 4.449V5.449C17.977 5.725 18.201 5.949 18.477 5.949H19.477C19.754 5.949 19.977 5.725 19.977 5.449M15.983 5.449V4.449C15.983 4.173 15.759 3.949 15.483 3.949H14.483C14.206 3.949 13.983 4.173 13.983 4.449V5.449C13.983 5.725 14.206 5.949 14.483 5.949H15.483C15.759 5.949 15.983 5.725 15.983 5.449M11.988 5.449V4.449C11.988 4.173 11.764 3.949 11.488 3.949H10.488C10.212 3.949 9.988 4.173 9.988 4.449V5.449C9.988 5.725 10.212 5.949 10.488 5.949H11.488C11.764 5.949 11.988 5.725 11.988 5.449M5.947 9.492V8.492C5.947 8.216 5.723 7.992 5.447 7.992H2.452C2.176 7.992 1.952 8.216 1.952 8.492V9.492C1.952 9.768 2.176 9.992 2.452 9.992H5.447C5.723 9.992 5.947 9.768 5.947 9.492M31.962 9.492V8.492C31.962 8.216 31.738 7.992 31.462 7.992H28.467C28.191 7.992 27.967 8.216 27.967 8.492V9.492C27.967 9.768 28.191 9.992 28.467 9.992H31.462C31.738 9.992 31.962 9.768 31.962 9.492M25.972 9.492V8.492C25.972 8.216 25.748 7.992 25.472 7.992H24.472C24.196 7.992 23.972 8.216 23.972 8.492V9.492C23.972 9.768 24.196 9.992 24.472 9.992H25.472C25.748 9.992 25.972 9.768 25.972 9.492M21.975 9.492V8.492C21.975 8.216 21.751 7.992 21.475 7.992H20.475C20.198 7.992 19.975 8.216 19.975 8.492V9.492C19.975 9.768 20.198 9.992 20.475 9.992H21.475C21.751 9.992 21.975 9.768 21.975 9.492M17.98 9.492V8.492C17.98 8.216 17.756 7.992 17.48 7.992H16.48C16.204 7.992 15.98 8.216 15.98 8.492V9.492C15.98 9.768 16.204 9.992 16.48 9.992H17.48C17.756 9.992 17.98 9.768 17.98 9.492M13.988 9.492V8.492C13.988 8.216 13.764 7.992 13.488 7.992H12.488C12.212 7.992 11.988 8.216 11.988 8.492V9.492C11.988 9.768 12.212 9.992 12.488 9.992H13.488C13.764 9.992 13.988 9.768 13.988 9.492M9.993 9.513V8.513C9.993 8.237 9.769 8.013 9.493 8.013H8.493C8.217 8.013 7.993 8.237 7.993 8.513V9.513C7.993 9.79 8.217 10.013 8.493 10.013H9.493C9.769 10.013 9.993 9.79 9.993 9.513M7.993 5.449V4.449C7.993 4.173 7.769 3.949 7.493 3.949H6.493C6.217 3.949 5.993 4.173 5.993 4.449V5.449C5.993 5.725 6.217 5.949 6.493 5.949H7.493C7.769 5.949 7.993 5.725 7.993 5.449M3.952 13.48V12.48C3.952 12.204 3.729 11.98 3.452 11.98H2.452C2.176 11.98 1.952 12.204 1.952 12.48V13.48C1.952 13.756 2.176 13.98 2.452 13.98H3.452C3.729 13.98 3.952 13.756 3.952 13.48M3.952 5.449V4.449C3.952 4.173 3.729 3.949 3.452 3.949H2.452C2.176 3.949 1.952 4.173 1.952 4.449V5.449C1.952 5.725 2.176 5.949 2.452 5.949H3.452C3.729 5.949 3.952 5.725 3.952 5.449M32.737 17.024H1C0.447 17.024 0 16.577 0 16.024V1C0 0.448 0.447 0 1 0H32.737C33.289 0 33.737 0.448 33.737 1V16.024C33.737 16.577 33.289 17.024 32.737 17.024" fill="#333333"/>
</svg>
