<svg width="62" height="49" viewBox="0 0 62 49" fill="none" xmlns="http://www.w3.org/2000/svg">
<path fill-rule="evenodd" clip-rule="evenodd" d="M12.6634 46.6741H61.3374C61.7034 46.6741 62.0004 46.9711 62.0004 47.3371C62.0004 47.7031 61.7034 48.0001 61.3374 48.0001H12.6634C12.2974 48.0001 12.0004 47.7031 12.0004 47.3371C12.0004 46.9711 12.2974 46.6741 12.6634 46.6741" fill="#333333"/>
<path fill-rule="evenodd" clip-rule="evenodd" d="M10.2405 46.2073C10.1835 46.2073 10.1255 46.1973 10.0685 46.1773C9.80952 46.0823 9.67652 45.7953 9.77052 45.5363L16.0305 28.3283C16.1255 28.0693 16.4125 27.9363 16.6725 28.0303C16.9305 28.1243 17.0645 28.4123 16.9695 28.6713L10.7105 45.8783C10.6365 46.0823 10.4445 46.2073 10.2405 46.2073" fill="#333333"/>
<path fill-rule="evenodd" clip-rule="evenodd" d="M25.5003 43.9997C25.3283 43.9997 25.1603 43.9107 25.0673 43.7507L0.0672649 0.750741C-0.0707351 0.512741 0.0102649 0.206741 0.249265 0.0677415C0.485265 -0.0702585 0.793265 0.0087415 0.933265 0.248741L25.9333 43.2487C26.0713 43.4867 25.9903 43.7927 25.7513 43.9317C25.6723 43.9777 25.5863 43.9997 25.5003 43.9997" fill="#333333"/>
<path fill-rule="evenodd" clip-rule="evenodd" d="M11.0002 48.3899C10.6302 48.4699 10.2202 48.3299 9.94024 48.0599C9.67024 47.7799 9.53024 47.3699 9.61024 46.9999C9.68024 46.6399 9.96024 46.3299 10.2902 46.2899C10.2602 46.6299 10.3202 46.8399 10.3912 46.9999C10.4702 47.1599 10.5502 47.2599 10.6502 47.3499C10.7402 47.4499 10.8402 47.5299 11.0002 47.6099C11.1602 47.6799 11.3702 47.7399 11.7102 47.7099C11.6702 48.0499 11.3602 48.3199 11.0002 48.3899M11.0002 44.9999C9.90024 44.9999 9.00024 45.8999 9.00024 46.9999C9.00024 48.0999 9.90024 48.9999 11.0002 48.9999C12.1012 48.9999 13.0002 48.0999 13.0002 46.9999C13.0002 45.8999 12.1012 44.9999 11.0002 44.9999" fill="#333333"/>
</svg>
