<svg width="42" height="43" viewBox="0 0 42 43" fill="none" xmlns="http://www.w3.org/2000/svg">
<mask id="mask0" mask-type="alpha" maskUnits="userSpaceOnUse" x="0" y="1" width="42" height="42">
<path fill-rule="evenodd" clip-rule="evenodd" d="M0 1.00061H41.339V42.3386H0V1.00061Z" fill="white"/>
</mask>
<g mask="url(#mask0)">
<path fill-rule="evenodd" clip-rule="evenodd" d="M41.3398 21.6696C41.3398 10.2536 32.0848 1.00061 20.6698 1.00061C9.25376 1.00061 -0.000244141 10.2536 -0.000244141 21.6696C-0.000244141 33.0856 9.25376 42.3386 20.6698 42.3386C32.0848 42.3386 41.3398 33.0856 41.3398 21.6696" fill="#333333"/>
</g>
<path fill-rule="evenodd" clip-rule="evenodd" d="M12.1914 12.3074H13.0414V13.0494H13.0604C13.1744 12.7994 13.3534 12.5964 13.5974 12.4414C13.8414 12.2864 14.1274 12.2094 14.4524 12.2094C14.6834 12.2094 14.8924 12.2474 15.0794 12.3244C15.2664 12.4014 15.4284 12.5114 15.5654 12.6564C15.7024 12.8014 15.8064 12.9774 15.8784 13.1864H15.8974C15.9924 12.9814 16.1184 12.8064 16.2764 12.6614C16.4334 12.5164 16.6164 12.4054 16.8234 12.3274C17.0294 12.2484 17.2524 12.2094 17.4894 12.2094C17.8244 12.2094 18.1164 12.2794 18.3634 12.4174C18.6104 12.5554 18.8024 12.7494 18.9394 12.9984C19.0764 13.2474 19.1444 13.5414 19.1444 13.8794V17.3854H18.2954V14.0754C18.2954 13.7264 18.2034 13.4534 18.0184 13.2574C17.8354 13.0604 17.5754 12.9614 17.2404 12.9614C17.0154 12.9614 16.8174 13.0134 16.6444 13.1154C16.4714 13.2184 16.3374 13.3594 16.2394 13.5404C16.1414 13.7214 16.0924 13.9274 16.0924 14.1584V17.3854H15.2434V13.9824C15.2434 13.6734 15.1484 13.4254 14.9604 13.2404C14.7714 13.0544 14.5184 12.9614 14.2034 12.9614C13.9784 12.9614 13.7794 13.0164 13.6044 13.1254C13.4304 13.2344 13.2934 13.3814 13.1924 13.5674C13.0914 13.7524 13.0414 13.9644 13.0414 14.2024V17.3854H12.1914V12.3074Z" fill="white"/>
<path fill-rule="evenodd" clip-rule="evenodd" d="M20.8241 17.2926C20.5701 17.1656 20.3731 16.9866 20.2301 16.7556C20.0901 16.5246 20.0181 16.2556 20.0181 15.9496V15.9396C20.0181 15.5066 20.1791 15.1616 20.5021 14.9026C20.8241 14.6436 21.2761 14.4986 21.8591 14.4656L23.7391 14.3576V15.0176L21.9571 15.1246C21.6181 15.1446 21.3551 15.2256 21.1681 15.3686C20.9811 15.5116 20.8871 15.7026 20.8871 15.9396V15.9496C20.8871 16.1936 20.9791 16.3876 21.1641 16.5306C21.3471 16.6736 21.5931 16.7456 21.8981 16.7456C22.1651 16.7456 22.4051 16.6896 22.6191 16.5776C22.8321 16.4646 23.0011 16.3116 23.1271 16.1156C23.2521 15.9206 23.3141 15.7006 23.3141 15.4566V13.9576C23.3141 13.6486 23.2181 13.4046 23.0231 13.2276C22.8301 13.0506 22.5551 12.9616 22.2011 12.9616C21.8761 12.9616 21.6131 13.0326 21.4121 13.1736C21.2131 13.3156 21.0881 13.5006 21.0391 13.7286L21.0291 13.7716H20.2091L20.2141 13.7186C20.2401 13.4386 20.3351 13.1846 20.5001 12.9566C20.6641 12.7286 20.8901 12.5476 21.1801 12.4126C21.4701 12.2766 21.8131 12.2096 22.2111 12.2096C22.6111 12.2096 22.9571 12.2776 23.2481 12.4146C23.5401 12.5516 23.7651 12.7446 23.9251 12.9936C24.0841 13.2426 24.1641 13.5366 24.1641 13.8746V17.3856H23.3141V16.5606H23.2951C23.1971 16.7456 23.0671 16.9076 22.9041 17.0456C22.7411 17.1846 22.5581 17.2916 22.3551 17.3686C22.1511 17.4446 21.9351 17.4826 21.7081 17.4826C21.3731 17.4826 21.0781 17.4196 20.8241 17.2926" fill="white"/>
<path fill-rule="evenodd" clip-rule="evenodd" d="M26.0994 17.1584C25.7464 16.9424 25.4744 16.6364 25.2824 16.2404C25.0894 15.8454 24.9944 15.3784 24.9944 14.8414V14.8364C24.9944 14.3034 25.0914 13.8394 25.2874 13.4454C25.4824 13.0514 25.7554 12.7464 26.1074 12.5324C26.4584 12.3174 26.8694 12.2094 27.3374 12.2094C27.7604 12.2094 28.1234 12.2914 28.4264 12.4564C28.7294 12.6204 28.9674 12.8334 29.1424 13.0934C29.3164 13.3534 29.4204 13.6294 29.4564 13.9184L29.4614 13.9574H28.6314L28.6214 13.9184C28.5604 13.6644 28.4234 13.4414 28.2144 13.2494C28.0034 13.0574 27.7114 12.9614 27.3374 12.9614C27.0444 12.9614 26.7874 13.0384 26.5664 13.1934C26.3444 13.3484 26.1724 13.5664 26.0484 13.8474C25.9244 14.1294 25.8634 14.4624 25.8634 14.8464V14.8514C25.8634 15.2454 25.9254 15.5824 26.0504 15.8624C26.1764 16.1414 26.3504 16.3564 26.5744 16.5064C26.7964 16.6564 27.0544 16.7314 27.3474 16.7314C27.6964 16.7314 27.9784 16.6424 28.1954 16.4654C28.4114 16.2874 28.5554 16.0574 28.6264 15.7744L28.6364 15.7354H29.4714L29.4664 15.7694C29.4204 16.0914 29.3024 16.3824 29.1134 16.6404C28.9214 16.8994 28.6764 17.1044 28.3744 17.2564C28.0744 17.4074 27.7314 17.4834 27.3474 17.4834C26.8694 17.4834 26.4534 17.3744 26.0994 17.1584" fill="white"/>
<path fill-rule="evenodd" clip-rule="evenodd" d="M17.4228 30.9049C18.0868 30.4629 18.5998 29.8399 18.9578 29.0349C19.3168 28.2319 19.4958 27.2849 19.4958 26.1969V26.1779C19.4958 25.0829 19.3158 24.1339 18.9528 23.3299C18.5918 22.5259 18.0768 21.9059 17.4088 21.4689C16.7408 21.0339 15.9518 20.8159 15.0428 20.8159C14.1338 20.8159 13.3438 21.0339 12.6728 21.4689C12.0008 21.9059 11.4838 22.5239 11.1178 23.3249C10.7538 24.1259 10.5708 25.0769 10.5708 26.1779V26.1969C10.5708 27.2909 10.7538 28.2409 11.1178 29.0449C11.4838 29.8489 11.9998 30.4699 12.6678 30.9089C13.3358 31.3489 14.1278 31.5679 15.0428 31.5679C15.9648 31.5679 16.7578 31.3469 17.4228 30.9049M11.7538 32.2639C10.8288 31.7009 10.1158 30.9039 9.61577 29.8699C9.11377 28.8379 8.86377 27.6129 8.86377 26.1969V26.1779C8.86377 24.7619 9.11577 23.5389 9.61977 22.5089C10.1238 21.4789 10.8388 20.6829 11.7638 20.1199C12.6878 19.5569 13.7808 19.2759 15.0428 19.2759C16.3048 19.2759 17.3968 19.5569 18.3178 20.1199C19.2388 20.6829 19.9498 21.4789 20.4518 22.5089C20.9518 23.5389 21.2028 24.7619 21.2028 26.1779V26.1969C21.2028 27.6129 20.9518 28.8379 20.4518 29.8699C19.9498 30.9039 19.2408 31.7009 18.3218 32.2639C17.4038 32.8269 16.3108 33.1079 15.0428 33.1079C13.7758 33.1079 12.6788 32.8269 11.7538 32.2639" fill="white"/>
<path fill-rule="evenodd" clip-rule="evenodd" d="M25.1131 32.6579C24.3811 32.3579 23.7991 31.9299 23.3691 31.3729C22.9391 30.8169 22.6971 30.1579 22.6401 29.3969L22.6321 29.2669H24.3011L24.3201 29.3969C24.3881 29.8429 24.5701 30.2269 24.8671 30.5529C25.1641 30.8769 25.5581 31.1279 26.0501 31.3039C26.5421 31.4799 27.1091 31.5679 27.7531 31.5679C28.3961 31.5679 28.9531 31.4769 29.4231 31.2949C29.8921 31.1119 30.2561 30.8509 30.5121 30.5109C30.7691 30.1709 30.8981 29.7719 30.8981 29.3139V29.3039C30.8981 28.7169 30.6931 28.2469 30.2851 27.8939C29.8771 27.5419 29.2131 27.2629 28.2911 27.0589L26.8061 26.7349C25.5021 26.4439 24.5351 25.9969 23.9071 25.3939C23.2791 24.7909 22.9661 24.0009 22.9661 23.0239V23.0139C22.9711 22.2789 23.1761 21.6309 23.5781 21.0709C23.9801 20.5109 24.5351 20.0719 25.2431 19.7539C25.9511 19.4349 26.7631 19.2759 27.6781 19.2759C28.5511 19.2759 29.3301 19.4319 30.0161 19.7439C30.7031 20.0559 31.2521 20.4909 31.6631 21.0479C32.0741 21.6039 32.3041 22.2479 32.3541 22.9769L32.3631 23.1159H30.6931L30.6751 22.9869C30.6071 22.5289 30.4401 22.1389 30.1741 21.8179C29.9081 21.4959 29.5601 21.2489 29.1311 21.0749C28.7001 20.9029 28.2011 20.8159 27.6331 20.8159C27.0391 20.8159 26.5191 20.9059 26.0741 21.0849C25.6291 21.2639 25.2831 21.5149 25.0391 21.8359C24.7951 22.1579 24.6731 22.5349 24.6731 22.9679V22.9769C24.6731 23.5219 24.8801 23.9699 25.2951 24.3229C25.7091 24.6749 26.3511 24.9479 27.2241 25.1389L28.7091 25.4639C30.0821 25.7669 31.0741 26.2139 31.6861 26.8039C32.2991 27.3949 32.6051 28.1999 32.6051 29.2209V29.2299C32.6051 30.0219 32.4051 30.7089 32.0071 31.2899C31.6071 31.8709 31.0381 32.3199 30.3001 32.6349C29.5601 32.9499 28.6801 33.1079 27.6601 33.1079C26.6951 33.1079 25.8461 32.9579 25.1131 32.6579" fill="white"/>
</svg>
