<svg width="36" height="41" viewBox="0 0 36 41" fill="none" xmlns="http://www.w3.org/2000/svg">
<mask id="mask0" mask-type="alpha" maskUnits="userSpaceOnUse" x="0" y="0" width="36" height="41">
<path fill-rule="evenodd" clip-rule="evenodd" d="M0.727051 0H35.7281V40.9998H0.727051V0Z" fill="white"/>
</mask>
<g mask="url(#mask0)">
<path fill-rule="evenodd" clip-rule="evenodd" d="M22.1271 23.7998C22.0181 24.0898 21.8481 24.4098 21.6071 24.7598C21.3981 25.0598 21.1671 25.3498 20.9281 25.5998C20.6881 25.8598 20.3871 25.9898 20.0471 25.9898C19.8271 25.9898 19.6371 25.9598 19.4871 25.8898C19.3481 25.8198 19.1971 25.7598 19.0371 25.6898C18.8771 25.6198 18.6781 25.5898 18.4171 25.5898C18.1571 25.5898 17.9471 25.6298 17.7771 25.6898C17.6071 25.7598 17.4471 25.8298 17.2971 25.8998C17.1371 25.9698 16.9671 25.9998 16.7571 25.9998C16.4471 25.9998 16.1671 25.8798 15.9381 25.6298C15.6971 25.3798 15.4571 25.0798 15.2071 24.7298C14.9171 24.3198 14.6671 23.8098 14.4671 23.2198C14.2571 22.6198 14.1571 22.0198 14.1571 21.4198C14.1571 20.7698 14.2871 20.2198 14.5271 19.7798C14.7771 19.3398 15.0871 19.0098 15.4671 18.7798C15.8471 18.5598 16.2471 18.4498 16.6671 18.4498C16.8871 18.4498 17.0981 18.4798 17.2871 18.5498C17.4871 18.6198 17.6671 18.6898 17.8271 18.7698C17.9971 18.8398 18.1481 18.8798 18.2871 18.8798C18.4281 18.8798 18.5771 18.8398 18.7571 18.7598C18.9381 18.6898 19.1271 18.6098 19.3481 18.5398C19.5671 18.4598 19.7971 18.4198 20.0471 18.4198C20.1481 18.4198 20.3081 18.4398 20.5371 18.4698C20.7681 18.4998 21.0181 18.5798 21.2871 18.7198C21.5671 18.8598 21.8081 19.0898 22.0371 19.4198C22.0181 19.4198 21.9571 19.4698 21.8481 19.5498C21.7371 19.6298 21.6071 19.7398 21.4671 19.8998C21.3371 20.0498 21.2171 20.2498 21.1071 20.4798C21.0071 20.7198 20.9571 20.9898 20.9571 21.3198C20.9571 21.6898 21.0181 21.9998 21.1481 22.2498C21.2771 22.5098 21.4381 22.7198 21.6071 22.8798C21.7871 23.0398 21.9381 23.1498 22.0671 23.2298C22.2071 23.2998 22.2771 23.3398 22.2971 23.3398C22.2871 23.3598 22.2371 23.5098 22.1271 23.7998V23.7998ZM18.3571 17.3698C18.4671 17.1198 18.5981 16.9198 18.7371 16.7598C18.9171 16.5498 19.1481 16.3698 19.4171 16.2298C19.6971 16.0898 19.9571 16.0098 20.2071 15.9998C20.2171 16.0598 20.2281 16.1298 20.2281 16.1998C20.2281 16.4598 20.1781 16.7098 20.0771 16.9498C19.9781 17.1998 19.8481 17.4198 19.6971 17.5998C19.5271 17.8098 19.3171 17.9798 19.0671 18.1098C18.8081 18.2398 18.5671 18.3098 18.3481 18.3098C18.2971 18.3098 18.2471 18.3098 18.2071 18.2998C18.1971 18.2498 18.1881 18.1898 18.1881 18.1198C18.1881 17.8598 18.2471 17.6098 18.3571 17.3698V17.3698ZM35.7281 37.9998V3.99976H33.7281V0.499756C33.7281 0.223756 33.5031 -0.000244141 33.2281 -0.000244141C32.9511 -0.000244141 32.7281 0.223756 32.7281 0.499756V3.99976H3.72705V0.499756C3.72705 0.223756 3.50305 -0.000244141 3.22705 -0.000244141C2.95105 -0.000244141 2.72705 0.223756 2.72705 0.499756V3.99976H0.727051V37.9998H2.72705V39.9998H0.727051V40.9998H5.72705V39.9998H3.72705V37.9998H32.7281V39.9998H30.7281V40.9998H35.7281V39.9998H33.7281V37.9998H35.7281Z" fill="#333333"/>
</g>
</svg>
