<svg width="33" height="33" viewBox="0 0 33 33" fill="none" xmlns="http://www.w3.org/2000/svg">
<path fill-rule="evenodd" clip-rule="evenodd" d="M10.065 23.989C8.96 23.989 8.065 23.093 8.065 21.989V10.065C8.065 8.961 8.96 8.065 10.065 8.065H21.99C23.094 8.065 23.99 8.961 23.99 10.065V21.989C23.99 23.093 23.094 23.989 21.99 23.989H10.065ZM32.054 9.065V7.065H29.033V5.021C29.033 3.917 28.138 3.021 27.033 3.021H25.059V0H23.059V3.021H21.061V0H19.061V3.021H17.062V0H15.062V3.021H13.064V0H11.064V3.021H9.065V0H7.065V3.021H5.021C3.917 3.021 3.021 3.917 3.021 5.021V6.995H0V8.995H3.021V10.994H0V12.994H3.021V14.992H0V16.992H3.021V18.991H0V20.991H3.021V22.989H0V24.989H3.021V27.033C3.021 28.137 3.917 29.033 5.021 29.033H6.995V32.054H8.995V29.033H10.994V32.054H12.994V29.033H14.992V32.054H16.992V29.033H18.991V32.054H20.991V29.033H22.99V32.054H24.99V29.033H27.033C28.138 29.033 29.033 28.137 29.033 27.033V25.059H32.054V23.059H29.033V21.06H32.054V19.06H29.033V17.062H32.054V15.062H29.033V13.063H32.054V11.063H29.033V9.065H32.054Z" fill="#333333"/>
</svg>
