<svg width="19" height="36" viewBox="0 0 19 36" fill="none" xmlns="http://www.w3.org/2000/svg">
<path fill-rule="evenodd" clip-rule="evenodd" d="M10.8162 28.4754C10.7482 28.6754 10.6502 28.8614 10.5352 29.0384C10.4642 29.1484 10.3862 29.2514 10.2922 29.3424C10.2272 29.4064 10.1552 29.4604 10.0712 29.4974C9.98721 29.5354 9.90021 29.5464 9.81021 29.5334C9.70821 29.5164 9.61021 29.4824 9.51321 29.4494C9.43121 29.4204 9.34821 29.3984 9.26221 29.3854C9.16321 29.3714 9.06621 29.3794 8.97121 29.4094C8.89821 29.4314 8.82721 29.4594 8.75621 29.4864C8.69121 29.5094 8.62421 29.5304 8.55421 29.5404C8.45521 29.5554 8.36121 29.5374 8.27221 29.4934C8.19821 29.4564 8.13321 29.4074 8.07421 29.3494C7.96721 29.2464 7.88021 29.1284 7.80321 29.0024C7.67621 28.7954 7.56921 28.5794 7.49421 28.3484C7.45221 28.2204 7.42021 28.0894 7.40121 27.9564C7.38321 27.8314 7.37721 27.7054 7.38121 27.5794C7.38721 27.3994 7.41621 27.2234 7.48021 27.0534C7.54221 26.8894 7.63221 26.7454 7.75821 26.6214C7.87821 26.5034 8.02021 26.4244 8.18621 26.3924C8.26421 26.3764 8.34321 26.3724 8.42321 26.3774C8.56221 26.3864 8.69621 26.4214 8.83121 26.4584C8.91121 26.4814 8.99321 26.4984 9.07421 26.5184C9.13521 26.5324 9.19421 26.5234 9.25421 26.5114C9.35721 26.4904 9.45521 26.4544 9.55421 26.4224C9.63621 26.3964 9.71921 26.3754 9.80421 26.3654C9.88521 26.3544 9.96621 26.3544 10.0472 26.3644C10.1942 26.3804 10.3302 26.4304 10.4522 26.5144C10.5352 26.5734 10.6082 26.6434 10.6742 26.7204C10.6872 26.7354 10.6982 26.7484 10.7112 26.7634C10.6822 26.7894 10.6532 26.8154 10.6252 26.8414C10.5322 26.9264 10.4462 27.0174 10.3832 27.1274C10.3252 27.2304 10.2872 27.3384 10.2742 27.4554C10.2462 27.7084 10.3042 27.9404 10.4562 28.1464C10.5192 28.2304 10.5902 28.3054 10.6792 28.3634C10.7252 28.3934 10.7752 28.4154 10.8302 28.4334C10.8252 28.4474 10.8212 28.4604 10.8162 28.4754M9.10621 26.2834C9.11121 26.1944 9.12621 26.1054 9.15221 26.0194C9.19121 25.8894 9.25121 25.7704 9.33821 25.6664C9.40721 25.5834 9.49221 25.5214 9.58721 25.4724C9.68921 25.4184 9.79821 25.3824 9.91021 25.3564H9.91421C9.92321 25.3844 9.92721 25.4134 9.92821 25.4434C9.93021 25.5564 9.90621 25.6644 9.86621 25.7694C9.78721 25.9794 9.65221 26.1444 9.46421 26.2664C9.40021 26.3074 9.32921 26.3294 9.25421 26.3394C9.20921 26.3454 9.16321 26.3504 9.11721 26.3564C9.11221 26.3574 9.10821 26.3574 9.10521 26.3574C9.10521 26.3314 9.10421 26.3074 9.10621 26.2834M17.9232 7.64542C17.7732 5.88042 17.7142 4.14742 16.6362 2.66342C15.7812 1.48742 14.4862 0.736419 13.0792 0.422419C11.7582 0.127419 10.4312 -0.00858145 9.10521 0.000418548C7.77821 -0.00858145 6.45121 0.127419 5.13021 0.422419C3.72321 0.736419 2.42821 1.48742 1.57321 2.66342C0.495208 4.14742 0.437208 5.88042 0.286208 7.64542C-0.127792 12.4924 0.0292076 17.2964 0.0292076 22.1474C0.0662076 24.9814 0.0402076 27.7464 0.485208 30.5534C0.935208 33.3984 2.56321 35.0664 5.38821 35.6474C6.62221 35.9024 7.86321 36.0104 9.10521 35.9994C10.3462 36.0104 11.5872 35.9024 12.8212 35.6474C15.6472 35.0664 17.2742 33.3984 17.7242 30.5534C18.1692 27.7464 18.1432 24.9814 18.1802 22.1474C18.1802 17.2964 18.3372 12.4924 17.9232 7.64542" fill="#333333"/>
</svg>
