<svg width="39" height="32" viewBox="0 0 39 32" fill="none" xmlns="http://www.w3.org/2000/svg">
<path fill-rule="evenodd" clip-rule="evenodd" d="M25.8074 14.6631H30.4824C31.2134 14.6631 31.8074 15.2561 31.8074 15.9871V20.6631C31.8074 21.3941 31.2134 21.9871 30.4824 21.9871H25.8074C25.0764 21.9871 24.4824 21.3941 24.4824 20.6631V15.9871C24.4824 15.2561 25.0764 14.6631 25.8074 14.6631" fill="#333333"/>
<path fill-rule="evenodd" clip-rule="evenodd" d="M32.9099 21.0898C32.9099 22.1908 32.0199 23.0898 30.9099 23.0898H25.3799C24.6299 23.0898 23.9799 22.6808 23.6389 22.0698C23.4699 21.7798 23.3799 21.4498 23.3799 21.0898V15.5608C23.3799 14.4498 24.2699 13.5608 25.3799 13.5608H30.9099C32.0199 13.5608 32.9099 14.4498 32.9099 15.5608V21.0898ZM34.4699 7.99976H21.8199C19.6099 7.99976 17.8199 9.78976 17.8199 11.9998V24.6408C17.8199 26.8508 19.6099 28.6408 21.8199 28.6408H34.4699C36.6799 28.6408 38.4699 26.8508 38.4699 24.6408V11.9998C38.4699 9.78976 36.6799 7.99976 34.4699 7.99976V7.99976Z" fill="#333333"/>
<path fill-rule="evenodd" clip-rule="evenodd" d="M26.6212 31.4235H29.6692V28.0415H26.6212V31.4235Z" fill="#333333"/>
<path fill-rule="evenodd" clip-rule="evenodd" d="M25.41 0H4.5C2.02 0 0 2.021 0 4.5V17.57C0 20.061 2.02 22.07 4.5 22.07H17.82V21.09V21.07H4.5C2.57 21.07 1 19.5 1 17.57V4.5C1 2.57 2.57 1 4.5 1H25.41C27.34 1 28.91 2.57 28.91 4.5V8H29.91V4.5C29.91 2.021 27.889 0 25.41 0" fill="#333333"/>
<path fill-rule="evenodd" clip-rule="evenodd" d="M0.497192 16.4475H16.4762V12.6195H0.497192V16.4475Z" fill="#333333"/>
</svg>
