<svg width="31" height="31" viewBox="0 0 31 31" fill="none" xmlns="http://www.w3.org/2000/svg">
<path fill-rule="evenodd" clip-rule="evenodd" d="M20.3775 30.7441C17.1815 30.7441 14.5815 28.1441 14.5815 24.9481V6.79712C14.5815 4.15212 12.4305 2.00012 9.7855 2.00012C7.1415 2.00012 4.9895 4.15212 4.9895 6.79712V26.1341H3.9895V6.79712C3.9895 3.60012 6.5895 1.00012 9.7855 1.00012C12.9815 1.00012 15.5815 3.60012 15.5815 6.79712V24.9481C15.5815 27.5931 17.7325 29.7441 20.3775 29.7441C23.0225 29.7441 25.1745 27.5931 25.1745 24.9481V9.48012H26.1745V24.9481C26.1745 28.1441 23.5735 30.7441 20.3775 30.7441" fill="#333333"/>
<path fill-rule="evenodd" clip-rule="evenodd" d="M6.979 26.786H2C0.895 26.786 0 25.89 0 24.786V18.974C0 17.869 0.895 16.973 2 16.973H6.979C8.083 16.973 8.979 17.869 8.979 18.974V24.786C8.979 25.89 8.083 26.786 6.979 26.786" fill="#333333"/>
<path fill-rule="evenodd" clip-rule="evenodd" d="M28.1636 14.7997H23.1846C22.0796 14.7997 21.1846 13.9037 21.1846 12.7997V6.98767C21.1846 5.88267 22.0796 4.98767 23.1846 4.98767H28.1636C29.2676 4.98767 30.1636 5.88267 30.1636 6.98767V12.7997C30.1636 13.9037 29.2676 14.7997 28.1636 14.7997" fill="#333333"/>
<path fill-rule="evenodd" clip-rule="evenodd" d="M2.99048 29.6673H3.99048V26.6973H2.99048V29.6673Z" fill="#333333"/>
<path fill-rule="evenodd" clip-rule="evenodd" d="M4.98853 29.6673H5.98853V26.6973H4.98853V29.6673Z" fill="#333333"/>
<path fill-rule="evenodd" clip-rule="evenodd" d="M23.7075 5.11709H27.6405V2.26709C27.6405 1.99209 27.4155 1.76709 27.1405 1.76709H24.2075C23.9325 1.76709 23.7075 1.99209 23.7075 2.26709V5.11709ZM28.6405 6.11709H22.7075V2.26709C22.7075 1.44009 23.3805 0.76709 24.2075 0.76709H27.1405C27.9675 0.76709 28.6405 1.44009 28.6405 2.26709V6.11709Z" fill="#333333"/>
</svg>
