<svg width="11" height="33" viewBox="0 0 11 33" fill="none" xmlns="http://www.w3.org/2000/svg">
<path fill-rule="evenodd" clip-rule="evenodd" d="M3.36705 13.7894C2.80505 13.7894 2.34705 14.2474 2.34705 14.8104C2.34705 15.3724 2.80505 15.8304 3.36705 15.8304C3.93005 15.8304 4.38805 15.3724 4.38805 14.8104C4.38805 14.2474 3.93005 13.7894 3.36705 13.7894" fill="#333333"/>
<mask id="mask0" mask-type="alpha" maskUnits="userSpaceOnUse" x="0" y="0" width="11" height="33">
<path fill-rule="evenodd" clip-rule="evenodd" d="M0.578613 0.854004H10.3886V32.9998H0.578613V0.854004Z" fill="white"/>
</mask>
<g mask="url(#mask0)">
<path fill-rule="evenodd" clip-rule="evenodd" d="M9.32061 23.1868C9.32061 24.1088 8.56561 24.8638 7.64361 24.8638C6.72161 24.8638 5.96661 24.1088 5.96661 23.1868V18.9758C5.96661 18.0538 6.72161 17.2988 7.64361 17.2988C8.56561 17.2988 9.32061 18.0538 9.32061 18.9758V23.1868ZM3.36661 16.4588C2.45661 16.4588 1.71761 15.7208 1.71761 14.8108C1.71761 13.8988 2.45661 13.1608 3.36661 13.1608C4.27861 13.1608 5.01661 13.8988 5.01661 14.8108C5.01661 15.7208 4.27861 16.4588 3.36661 16.4588V16.4588ZM3.36661 20.6008C2.45661 20.6008 1.71761 19.8628 1.71761 18.9518C1.71761 18.0408 2.45661 17.3008 3.36661 17.3008C4.27861 17.3008 5.01661 18.0408 5.01661 18.9518C5.01661 19.8628 4.27861 20.6008 3.36661 20.6008V20.6008ZM3.36661 24.8638C2.45661 24.8638 1.71761 24.1248 1.71761 23.2138C1.71761 22.3028 2.45661 21.5648 3.36661 21.5648C4.27861 21.5648 5.01661 22.3028 5.01661 23.2138C5.01661 24.1248 4.27861 24.8638 3.36661 24.8638V24.8638ZM7.64361 13.1608C8.55461 13.1608 9.29361 13.8988 9.29361 14.8108C9.29361 15.7208 8.55461 16.4588 7.64361 16.4588C6.73261 16.4588 5.99361 15.7208 5.99361 14.8108C5.99361 13.8988 6.73261 13.1608 7.64361 13.1608V13.1608ZM8.53261 0.85376H2.43561C1.41461 0.85376 0.578613 1.68876 0.578613 2.70976V31.1428C0.578613 32.1648 1.41461 32.9998 2.43561 32.9998H8.53261C9.55361 32.9998 10.3886 32.1648 10.3886 31.1428V2.70976C10.3886 1.68876 9.55361 0.85376 8.53261 0.85376V0.85376Z" fill="#333333"/>
</g>
</svg>
