<svg width="35" height="35" viewBox="0 0 35 35" fill="none" xmlns="http://www.w3.org/2000/svg">
<path fill-rule="evenodd" clip-rule="evenodd" d="M19.1053 34.3309C12.6843 34.3309 7.46033 29.1069 7.46033 22.6859H8.46033C8.46033 28.5569 13.2363 33.3309 19.1053 33.3309C24.9743 33.3309 29.7503 28.5569 29.7503 22.6859H30.7503C30.7503 29.1069 25.5263 34.3309 19.1053 34.3309" fill="#333333"/>
<path fill-rule="evenodd" clip-rule="evenodd" d="M32.3816 24.0399H28.1166C27.1706 24.0399 26.4026 23.2729 26.4026 22.3269V17.3489C26.4026 16.4019 27.1706 15.6359 28.1166 15.6359H32.3816C33.3276 15.6359 34.0946 16.4019 34.0946 17.3489V22.3269C34.0946 23.2729 33.3276 24.0399 32.3816 24.0399" fill="#333333"/>
<path fill-rule="evenodd" clip-rule="evenodd" d="M28.5653 15.746H31.9333V13.305C31.9333 13.069 31.7413 12.876 31.5043 12.876H28.9933C28.7573 12.876 28.5653 13.069 28.5653 13.305V15.746ZM32.7903 16.602H27.7083V13.305C27.7083 12.597 28.2853 12.019 28.9933 12.019H31.5043C32.2133 12.019 32.7903 12.597 32.7903 13.305V16.602Z" fill="#333333"/>
<path fill-rule="evenodd" clip-rule="evenodd" d="M4.198 3.078C4.198 2.388 3.638 1.828 2.948 1.828C2.258 1.828 1.698 2.388 1.698 3.078C1.698 3.768 2.258 4.328 2.948 4.328C3.638 4.328 4.198 3.768 4.198 3.078M14.955 24.04H2C0.895 24.04 0 23.144 0 22.04V2C0 0.894 0.895 0 2 0H14.955C16.059 0 16.955 0.894 16.955 2V22.04C16.955 23.144 16.059 24.04 14.955 24.04" fill="#333333"/>
</svg>
