<svg width="35" height="34" viewBox="0 0 35 34" fill="none" xmlns="http://www.w3.org/2000/svg">
<path fill-rule="evenodd" clip-rule="evenodd" d="M34.1844 17.0423C34.1844 7.72427 26.6304 0.171265 17.3134 0.171265C7.99638 0.171265 0.442383 7.72427 0.442383 17.0423C0.442383 26.3593 7.99638 33.9133 17.3134 33.9133C26.6304 33.9133 34.1844 26.3593 34.1844 17.0423" fill="#333333"/>
<path fill-rule="evenodd" clip-rule="evenodd" d="M7.08008 9.40076H7.76908L8.59908 12.7718H8.61508L9.55208 9.40076H10.2211L11.1611 12.7718H11.1781L12.0071 9.40076H12.6921L11.5361 13.5458H10.8311L9.89408 10.3378H9.87808L8.94508 13.5458H8.24008L7.08008 9.40076Z" fill="white"/>
<path fill-rule="evenodd" clip-rule="evenodd" d="M13.6677 13.469C13.4607 13.365 13.2997 13.22 13.1837 13.032C13.0677 12.842 13.0107 12.623 13.0107 12.373V12.365C13.0107 12.012 13.1417 11.73 13.4047 11.519C13.6677 11.307 14.0367 11.189 14.5127 11.161L16.0477 11.074V11.613L14.5927 11.699C14.3157 11.716 14.1017 11.782 13.9487 11.899C13.7957 12.016 13.7197 12.171 13.7197 12.365V12.373C13.7197 12.573 13.7947 12.731 13.9447 12.848C14.0947 12.965 14.2947 13.023 14.5447 13.023C14.7627 13.023 14.9587 12.977 15.1327 12.886C15.3067 12.794 15.4447 12.668 15.5467 12.509C15.6487 12.35 15.7007 12.17 15.7007 11.971V10.747C15.7007 10.495 15.6217 10.296 15.4637 10.152C15.3057 10.007 15.0817 9.93404 14.7917 9.93404C14.5257 9.93404 14.3117 9.99204 14.1477 10.108C13.9847 10.223 13.8837 10.374 13.8437 10.56L13.8357 10.596H13.1657L13.1697 10.552C13.1907 10.323 13.2687 10.116 13.4027 9.93004C13.5367 9.74404 13.7227 9.59604 13.9587 9.48604C14.1947 9.37504 14.4757 9.32104 14.7997 9.32104C15.1267 9.32104 15.4087 9.37604 15.6467 9.48804C15.8847 9.60004 16.0677 9.75704 16.1987 9.96004C16.3287 10.163 16.3947 10.404 16.3947 10.68V13.545H15.7007V12.871H15.6847C15.6047 13.023 15.4987 13.156 15.3657 13.268C15.2327 13.381 15.0837 13.469 14.9177 13.531C14.7517 13.594 14.5747 13.625 14.3897 13.625C14.1157 13.625 13.8747 13.573 13.6677 13.469" fill="white"/>
<path fill-rule="evenodd" clip-rule="evenodd" d="M17.7694 13.3538C17.5814 13.1728 17.4864 12.8848 17.4864 12.4888V9.97376H16.8804V9.40076H17.4864V8.28076H18.2044V9.40076H18.9934V9.97376H18.2044V12.4848C18.2044 12.7058 18.2514 12.8548 18.3474 12.9338C18.4434 13.0118 18.5834 13.0508 18.7704 13.0508C18.8124 13.0508 18.8534 13.0488 18.8914 13.0448C18.9294 13.0418 18.9634 13.0378 18.9934 13.0358V13.5968C18.9514 13.6018 18.8954 13.6088 18.8284 13.6148C18.7594 13.6218 18.6914 13.6248 18.6234 13.6248C18.2424 13.6248 17.9574 13.5348 17.7694 13.3538" fill="white"/>
<path fill-rule="evenodd" clip-rule="evenodd" d="M20.3134 13.3597C20.0254 13.1827 19.8024 12.9337 19.6464 12.6107C19.4894 12.2877 19.4114 11.9077 19.4114 11.4687V11.4647C19.4114 11.0287 19.4914 10.6507 19.6504 10.3297C19.8094 10.0067 20.0334 9.75868 20.3204 9.58368C20.6064 9.40868 20.9414 9.32068 21.3244 9.32068C21.6694 9.32068 21.9654 9.38768 22.2124 9.52168C22.4594 9.65668 22.6544 9.82968 22.7964 10.0427C22.9384 10.2547 23.0244 10.4787 23.0534 10.7147L23.0574 10.7477H22.3794L22.3724 10.7147C22.3224 10.5077 22.2104 10.3267 22.0404 10.1697C21.8684 10.0127 21.6294 9.93368 21.3244 9.93368C21.0844 9.93368 20.8754 9.99768 20.6944 10.1237C20.5134 10.2507 20.3734 10.4277 20.2724 10.6577C20.1704 10.8877 20.1204 11.1597 20.1204 11.4727V11.4767C20.1204 11.7977 20.1714 12.0737 20.2744 12.3017C20.3754 12.5307 20.5184 12.7057 20.7004 12.8277C20.8824 12.9507 21.0924 13.0107 21.3324 13.0107C21.6164 13.0107 21.8464 12.9387 22.0234 12.7947C22.2004 12.6487 22.3184 12.4617 22.3764 12.2297L22.3844 12.1987H23.0654L23.0614 12.2257C23.0244 12.4887 22.9284 12.7257 22.7724 12.9377C22.6174 13.1487 22.4174 13.3157 22.1704 13.4397C21.9254 13.5627 21.6454 13.6257 21.3324 13.6257C20.9414 13.6257 20.6024 13.5367 20.3134 13.3597" fill="white"/>
<path fill-rule="evenodd" clip-rule="evenodd" d="M23.74 7.79431H24.433V10.0623H24.449C24.561 9.82831 24.727 9.64631 24.947 9.51631C25.168 9.38631 25.432 9.32031 25.741 9.32031C26.036 9.32031 26.294 9.39231 26.515 9.53331C26.738 9.67631 26.911 9.87331 27.036 10.1253C27.161 10.3783 27.223 10.6723 27.223 11.0063V13.5453H26.53V11.1263C26.53 10.7513 26.439 10.4593 26.259 10.2493C26.078 10.0393 25.826 9.93431 25.502 9.93431C25.289 9.93431 25.102 9.98431 24.941 10.0863C24.781 10.1873 24.656 10.3263 24.567 10.5043C24.478 10.6823 24.433 10.8903 24.433 11.1263V13.5453H23.74V7.79431Z" fill="white"/>
<path fill-rule="evenodd" clip-rule="evenodd" d="M14.661 24.5794C15.203 24.2194 15.621 23.7104 15.914 23.0544C16.207 22.3974 16.353 21.6254 16.353 20.7364V20.7224C16.353 19.8284 16.205 19.0534 15.91 18.3964C15.615 17.7404 15.194 17.2344 14.649 16.8794C14.104 16.5224 13.461 16.3454 12.719 16.3454C11.976 16.3454 11.331 16.5224 10.783 16.8794C10.235 17.2344 9.81305 17.7394 9.51505 18.3924C9.21805 19.0474 9.06805 19.8234 9.06805 20.7224V20.7364C9.06805 21.6304 9.21805 22.4054 9.51505 23.0614C9.81305 23.7184 10.234 24.2254 10.78 24.5834C11.325 24.9414 11.972 25.1214 12.719 25.1214C13.471 25.1214 14.118 24.9404 14.661 24.5794M10.034 25.6884C9.27905 25.2294 8.69705 24.5784 8.28805 23.7354C7.88005 22.8924 7.67505 21.8924 7.67505 20.7364V20.7224C7.67505 19.5654 7.88105 18.5674 8.29205 17.7264C8.70405 16.8864 9.28705 16.2364 10.042 15.7764C10.796 15.3174 11.688 15.0884 12.719 15.0884C13.748 15.0884 14.64 15.3174 15.391 15.7764C16.143 16.2364 16.724 16.8864 17.133 17.7264C17.542 18.5674 17.746 19.5654 17.746 20.7224V20.7364C17.746 21.8924 17.542 22.8924 17.133 23.7354C16.724 24.5784 16.144 25.2294 15.395 25.6884C14.645 26.1484 13.753 26.3784 12.719 26.3784C11.683 26.3784 10.789 26.1484 10.034 25.6884" fill="white"/>
<path fill-rule="evenodd" clip-rule="evenodd" d="M20.9383 26.0111C20.3393 25.7661 19.8653 25.4161 19.5143 24.9621C19.1643 24.5081 18.9653 23.9701 18.9203 23.3491L18.9133 23.2431H20.2763L20.2913 23.3491C20.3463 23.7131 20.4953 24.0271 20.7383 24.2921C20.9803 24.5571 21.3013 24.7621 21.7033 24.9061C22.1043 25.0491 22.5673 25.1211 23.0923 25.1211C23.6183 25.1211 24.0723 25.0471 24.4563 24.8981C24.8393 24.7491 25.1353 24.5351 25.3453 24.2581C25.5543 23.9811 25.6603 23.6551 25.6603 23.2821V23.2741C25.6603 22.7941 25.4933 22.4101 25.1603 22.1221C24.8273 21.8351 24.2843 21.6081 23.5323 21.4411L22.3203 21.1761C21.2543 20.9391 20.4663 20.5741 19.9543 20.0821C19.4413 19.5891 19.1853 18.9451 19.1853 18.1471V18.1401C19.1903 17.5381 19.3573 17.0101 19.6853 16.5531C20.0133 16.0961 20.4663 15.7381 21.0443 15.4781C21.6223 15.2181 22.2853 15.0881 23.0323 15.0881C23.7443 15.0881 24.3793 15.2151 24.9403 15.4701C25.5003 15.7251 25.9493 16.0791 26.2843 16.5341C26.6203 16.9891 26.8083 17.5141 26.8483 18.1101L26.8563 18.2231H25.4933L25.4783 18.1161C25.4223 17.7431 25.2863 17.4251 25.0693 17.1621C24.8523 16.9011 24.5683 16.6981 24.2173 16.5571C23.8663 16.4151 23.4593 16.3451 22.9943 16.3451C22.5093 16.3451 22.0853 16.4181 21.7223 16.5651C21.3583 16.7111 21.0773 16.9151 20.8773 17.1781C20.6783 17.4411 20.5793 17.7481 20.5793 18.1021V18.1101C20.5793 18.5541 20.7483 18.9191 21.0853 19.2071C21.4243 19.4951 21.9493 19.7171 22.6613 19.8731L23.8733 20.1391C24.9933 20.3861 25.8033 20.7511 26.3033 21.2331C26.8033 21.7151 27.0533 22.3721 27.0533 23.2051V23.2131C27.0533 23.8601 26.8903 24.4191 26.5643 24.8941C26.2393 25.3681 25.7743 25.7351 25.1713 25.9921C24.5683 26.2491 23.8503 26.3781 23.0173 26.3781C22.2293 26.3781 21.5373 26.2561 20.9383 26.0111" fill="white"/>
</svg>
