<svg width="36" height="37" viewBox="0 0 36 37" fill="none" xmlns="http://www.w3.org/2000/svg">
<path fill-rule="evenodd" clip-rule="evenodd" d="M11.0322 6.31925C11.3222 6.07925 11.6122 5.84925 11.9222 5.63025V29.5792C11.6122 29.3592 11.3222 29.1302 11.0322 28.8802C7.83225 26.1792 5.80225 22.1302 5.80225 17.6092C5.80225 13.0902 7.83225 9.03925 11.0322 6.31925" fill="#333333"/>
<path fill-rule="evenodd" clip-rule="evenodd" d="M35.3721 17.6092C35.3721 22.6092 32.8921 27.0292 29.0821 29.6992C28.8021 29.8992 28.5021 30.0992 28.2021 30.2792V4.9292C28.5021 5.1092 28.8021 5.2992 29.0821 5.5092C32.8921 8.1792 35.3721 12.5992 35.3721 17.6092" fill="#333333"/>
<path fill-rule="evenodd" clip-rule="evenodd" d="M28.2022 34.369C28.2022 35.289 27.4422 36.029 26.5122 36.029H13.6122C12.6822 36.029 11.9222 35.289 11.9222 34.369V2.5C11.9222 1.59 12.6822 0.84 13.6122 0.84H15.3022C15.4422 0.84 15.5622 0.96 15.5622 1.099V1.279C15.5622 1.739 15.9422 2.109 16.4022 2.109H23.7222C24.1822 2.109 24.5622 1.739 24.5622 1.279V1.099C24.5622 0.96 24.6822 0.84 24.8222 0.84H26.5122C27.4422 0.84 28.2022 1.59 28.2022 2.5V34.369ZM19.3722 1.099H21.3222C21.4122 1.099 21.4722 1.159 21.4722 1.25C21.4722 1.329 21.4122 1.39 21.3222 1.39H19.3722C19.2922 1.39 19.2222 1.329 19.2222 1.25C19.2222 1.159 19.2922 1.099 19.3722 1.099V1.099ZM21.9022 1.099H22.2122C22.2922 1.099 22.3622 1.159 22.3622 1.25C22.3622 1.329 22.2922 1.39 22.2122 1.39H21.9022C21.8222 1.39 21.7522 1.329 21.7522 1.25C21.7522 1.159 21.8222 1.099 21.9022 1.099V1.099ZM26.4422 0H13.6822C12.2222 0 11.0322 1.159 11.0322 2.599V34.269C11.0322 35.71 12.2222 36.88 13.6822 36.88H26.4422C27.9022 36.88 29.0822 35.71 29.0822 34.269V2.599C29.0822 1.159 27.9022 0 26.4422 0V0Z" fill="#333333"/>
<path fill-rule="evenodd" clip-rule="evenodd" d="M21.5485 11.3729L15.5905 18.4369H19.8595V23.8419L25.5825 18.1179H21.5485V11.3729Z" fill="#333333"/>
<path fill-rule="evenodd" clip-rule="evenodd" d="M6.4 18.1073H0.5C0.223 18.1073 0 17.8833 0 17.6073C0 17.3313 0.223 17.1073 0.5 17.1073H6.4C6.676 17.1073 6.9 17.3313 6.9 17.6073C6.9 17.8833 6.676 18.1073 6.4 18.1073" fill="#333333"/>
</svg>
